<svg width="35" height="41" viewBox="0 0 35 41" fill="none" xmlns="http://www.w3.org/2000/svg">
<g clip-path="url(#clip0_126_378)">
<path d="M2.93069 36.8012L0 0.984863L35 1.05684L31.9011 36.8012L17.6321 40.9328L2.93069 36.8012Z" fill="#1B73BA"/>
<path d="M17.6321 37.4737V4.39587L32.0453 4.44386L29.4751 34.0386L17.6321 37.4737Z" fill="#1C88C7"/>
<path d="M28.466 8.6239H6.29379L6.89444 12.9475H17.4159L7.06266 17.3917L7.66303 21.5714H22.9171L22.3644 27.4085L17.1997 28.4175L12.5156 27.2165L12.1552 23.9014H7.85524L8.43162 30.7958L17.6561 33.3661L26.4964 30.5556L27.6254 17.0792H18.2804L28.4657 12.8516L28.466 8.6239Z" fill="white"/>
</g>
<defs>
<clipPath id="clip0_126_378">
<rect width="35" height="40.0825" fill="white" transform="translate(0 0.917603)"/>
</clipPath>
</defs>
</svg>
