<svg width="35" height="35" viewBox="0 0 35 35" fill="none" xmlns="http://www.w3.org/2000/svg">
<path d="M11.6713 35C14.8913 35 17.5047 32.3867 17.5047 29.1667V23.3334H11.6713C8.45135 23.3334 5.83801 25.9467 5.83801 29.1667C5.83801 32.3867 8.45135 35 11.6713 35Z" fill="#0ACF83"/>
<path d="M5.83801 17.5C5.83801 14.28 8.45135 11.6666 11.6713 11.6666H17.5047V23.3333H11.6713C8.45135 23.3333 5.83801 20.72 5.83801 17.5Z" fill="#A259FF"/>
<path d="M5.83801 5.83333C5.83801 2.61333 8.45135 0 11.6713 0H17.5047V11.6667H11.6713C8.45135 11.6667 5.83801 9.05333 5.83801 5.83333Z" fill="#F24E1E"/>
<path d="M17.5046 0H23.338C26.558 0 29.1713 2.61333 29.1713 5.83333C29.1713 9.05333 26.558 11.6667 23.338 11.6667H17.5046V0Z" fill="#FF7262"/>
<path d="M29.1713 17.5C29.1713 20.72 26.558 23.3333 23.338 23.3333C20.118 23.3333 17.5046 20.72 17.5046 17.5C17.5046 14.28 20.118 11.6666 23.338 11.6666C26.558 11.6666 29.1713 14.28 29.1713 17.5Z" fill="#1ABCFE"/>
</svg>
