<svg width="35" height="35" viewBox="0 0 35 35" fill="none" xmlns="http://www.w3.org/2000/svg">
<g clip-path="url(#clip0_126_237)">
<path d="M14.2717 1.18586L1.35134 14.4072C-3.0141 19.8133 4.32223 19.1843 7.4672 20.7414C8.59534 21.8946 3.14311 22.7457 4.27126 23.8998C5.39941 25.053 11.093 26.1215 12.2231 27.2747C13.3513 28.4278 9.91392 29.6512 11.0421 30.8043C12.1702 31.9575 14.7795 30.8649 15.2681 33.5271C15.6162 35.4295 19.9701 34.3446 22.0995 32.7865C23.2276 31.6324 19.9413 31.7411 21.0694 30.5879C23.8749 27.719 26.487 29.5454 27.4469 26.6707C27.921 25.2501 23.3171 24.4807 24.4471 23.3276C27.6931 21.4319 38.912 20.198 33.5887 14.8746L20.1961 1.18586C18.5583 -0.38662 15.8249 -0.403932 14.2717 1.18586ZM29.1126 26.6707C29.1126 27.3266 33.9455 27.7565 33.9455 26.5158C33.2569 24.5231 29.6839 24.6577 29.1126 26.6707ZM7.34217 30.1561C8.48667 31.1458 10.2544 29.9099 10.7843 28.5288C9.6754 27.0554 5.52443 28.5817 7.34217 30.1561ZM28.5067 28.0181C27.0314 29.3415 28.6722 30.6841 30.1263 29.8291C30.4505 29.5002 30.1177 28.347 28.5067 28.0181Z" fill="black"/>
<path d="M11.1796 21.4569C11.5249 21.6714 16.7472 22.7322 18.0235 22.9438C18.4659 23.0371 18.1524 23.493 17.5426 23.8007C16.1673 24.1662 9.49651 21.4569 11.1796 21.4569Z" fill="white"/>
<path d="M19.4152 2.11299L24.5269 7.30459C25.0117 7.7999 25.0049 8.75974 24.7337 9.03576L22.1956 7.00548L21.6965 10.012L19.5758 8.89246L16.1798 11.0382L15.0555 6.51498L13.231 9.67149H10.4419C9.30511 9.67149 9.17142 8.22884 10.2044 7.19591C12.0086 5.24834 14.0793 3.26326 15.2046 2.11299C16.3356 0.95695 18.3062 0.98965 19.4152 2.11299Z" fill="white"/>
</g>
<defs>
<clipPath id="clip0_126_237">
<rect width="35" height="35" fill="white"/>
</clipPath>
</defs>
</svg>
