<svg width="35" height="36" viewBox="0 0 35 36" fill="none" xmlns="http://www.w3.org/2000/svg">
<g clip-path="url(#clip0_126_401)">
<path d="M35 0.917603H0V35.9176H35V0.917603Z" fill="#F7DF1E"/>
<path d="M9.20526 30.1645L11.8808 28.5437C12.3983 29.4645 12.8686 30.2315 13.9904 30.2315C15.0739 30.2315 15.7548 29.8097 15.7548 28.1602V16.9889H19.0435V28.2176C19.0435 31.6219 17.0488 33.175 14.134 33.175C11.5069 33.175 9.98251 31.8133 9.20526 30.1645Z" fill="black"/>
<path d="M20.8373 29.8097L23.5129 28.2565C24.2225 29.407 25.1337 30.2513 26.7538 30.2513C28.1155 30.2513 28.9878 29.5704 28.9878 28.6305C28.9878 27.4991 28.0957 27.1061 26.5904 26.4443L25.766 26.0896C23.3974 25.0826 21.8155 23.807 21.8155 21.1321C21.8155 18.6678 23.6947 16.7886 26.6294 16.7886C28.7198 16.7886 30.2251 17.5173 31.3086 19.4163L28.7485 21.0563C28.1825 20.0493 27.5789 19.6467 26.639 19.6467C25.6799 19.6467 25.0667 20.2605 25.0667 21.0563C25.0667 22.044 25.6806 22.4467 27.0901 23.051L27.9146 23.4058C30.7146 24.6041 32.2868 25.8223 32.2868 28.5744C32.2868 31.5371 29.9565 33.1579 26.8399 33.1579C23.7713 33.175 21.7957 31.7176 20.8373 29.8097Z" fill="black"/>
</g>
<defs>
<clipPath id="clip0_126_401">
<rect width="35" height="35" fill="white" transform="translate(0 0.917603)"/>
</clipPath>
</defs>
</svg>
