<svg width="35" height="36" viewBox="0 0 35 36" fill="none" xmlns="http://www.w3.org/2000/svg">
<path d="M17.5 21.4727C19.205 21.4727 20.5872 20.0905 20.5872 18.3855C20.5872 16.6805 19.205 15.2983 17.5 15.2983C15.795 15.2983 14.4128 16.6805 14.4128 18.3855C14.4128 20.0905 15.795 21.4727 17.5 21.4727Z" fill="#00D8FF"/>
<path d="M17.5 25.4637C13.7894 25.5535 10.088 25.0533 6.53428 23.9819C4.89266 23.4615 3.36155 22.6417 2.01833 21.564C1.50577 21.1958 1.07892 20.7211 0.767078 20.1725C0.455234 19.6238 0.265775 19.0142 0.2117 18.3854C0.2117 16.3442 2.45424 14.3437 6.21074 13.0347C9.85948 11.8748 13.6718 11.3127 17.5 11.3701C21.2771 11.3173 25.0384 11.8693 28.6411 13.0051C30.2221 13.5091 31.7013 14.2892 33.0101 15.3093C33.5139 15.6603 33.9343 16.1178 34.2416 16.6494C34.5489 17.181 34.7356 17.7737 34.7883 18.3854C34.7883 20.5069 32.2815 22.6569 28.2435 23.993C24.7585 25.0295 21.1353 25.5255 17.5 25.4637ZM17.5 12.847C13.8375 12.798 10.1905 13.3324 6.69605 14.4301C3.23839 15.6366 1.68862 17.2864 1.68862 18.3817C1.68862 19.5277 3.35447 21.3294 7.01218 22.5803C10.4119 23.6001 13.9517 24.0749 17.5 23.9868C20.9779 24.049 24.4449 23.5784 27.7804 22.5914C31.5776 21.3331 33.3065 19.5289 33.3065 18.3854C33.2442 17.993 33.1012 17.6178 32.8865 17.2834C32.6718 16.9491 32.3901 16.6629 32.0592 16.443C30.8883 15.538 29.5669 14.8466 28.1558 14.4005C24.7093 13.3184 21.112 12.794 17.5 12.847Z" fill="#00D8FF"/>
<path d="M10.4859 33.7831C9.90982 33.7964 9.34055 33.6566 8.83609 33.3781C7.06775 32.3581 6.45525 29.4166 7.19741 25.5082C8.0157 21.7679 9.43353 18.1845 11.396 14.8969C13.2369 11.5987 15.5936 8.6162 18.3768 6.06257C19.6032 4.94464 21.018 4.05286 22.5556 3.42858C23.1117 3.16794 23.7184 3.03284 24.3326 3.03284C24.9468 3.03284 25.5534 3.16794 26.1096 3.42858C27.9483 4.4881 28.5571 7.73337 27.6989 11.8986C26.8553 15.436 25.4743 18.8231 23.604 21.9419C21.8279 25.2012 19.5454 28.1577 16.8418 30.7009C15.5709 31.8626 14.0959 32.7791 12.4913 33.404C11.849 33.6424 11.171 33.7706 10.4859 33.7831ZM12.6753 15.6304C10.8034 18.7785 9.44447 22.2045 8.64963 25.7799C7.96674 29.3796 8.62246 31.5443 9.57579 32.0951C10.5637 32.6668 12.9618 32.1247 15.8737 29.5808C18.4546 27.1444 20.6332 24.3143 22.3284 21.196C24.1201 18.2144 25.4448 14.9761 26.2565 11.5936C27.0641 7.67286 26.3664 5.27225 25.3761 4.70174C25.0049 4.55951 24.6082 4.49585 24.2112 4.51476C23.8141 4.53368 23.4253 4.63477 23.0693 4.81164C21.7007 5.37641 20.4424 6.1782 19.3523 7.18014C16.6932 9.62617 14.4421 12.4814 12.684 15.6378L12.6753 15.6304Z" fill="#00D8FF"/>
<path d="M24.5104 33.7994C22.8371 33.7994 20.7119 32.7868 18.499 30.8838C15.6671 28.307 13.2705 25.2891 11.4022 21.947C9.46431 18.7046 8.05771 15.1731 7.23568 11.4863C6.87919 9.8643 6.81313 8.19191 7.04057 6.54681C7.09316 5.93654 7.27898 5.34524 7.58495 4.8146C7.89092 4.28396 8.30957 3.82691 8.81139 3.47567C10.6477 2.41244 13.7633 3.50531 16.9431 6.32824C19.5864 8.82539 21.8312 11.7132 23.5991 14.8909C25.5357 18.0575 26.9571 21.5117 27.81 25.1243C28.1818 26.8059 28.2392 28.5417 27.9792 30.2441C27.9173 30.872 27.7204 31.479 27.402 32.0236C27.0835 32.5682 26.6511 33.0375 26.1343 33.3993C25.6381 33.6743 25.0776 33.8124 24.5104 33.7994ZM12.6803 21.2036C14.4726 24.3975 16.7619 27.2858 19.4622 29.7601C22.2395 32.1496 24.4425 32.6633 25.3896 32.1063C26.3775 31.5321 27.1061 29.1883 26.3553 25.396C25.5327 21.9469 24.1694 18.6497 22.316 15.6269C20.629 12.5855 18.4863 9.82031 15.9626 7.42728C12.9692 4.76982 10.5415 4.17584 9.55232 4.74883C9.24402 4.99936 8.99103 5.3111 8.8093 5.66435C8.62757 6.0176 8.52106 6.4047 8.4965 6.8012C8.30016 8.26834 8.36412 9.75861 8.68543 11.2035C9.47613 14.7293 10.8252 18.106 12.6815 21.2061L12.6803 21.2036Z" fill="#00D8FF"/>
</svg>
