<?xml version="1.0" encoding="UTF-8" standalone="no"?>
<!-- Created with Inkscape (http://www.inkscape.org/) -->

<svg
   width="14.086636mm"
   height="7.588686mm"
   viewBox="0 0 14.086636 7.588686"
   version="1.1"
   id="svg5511"
   xmlns="http://www.w3.org/2000/svg"
   xmlns:svg="http://www.w3.org/2000/svg">
  <defs
     id="defs5508" />
  <g
     id="layer1"
     transform="translate(-52.464327,-99.941274)">
    <path
       id="path898"
       style="display:inline;fill:#ffffff;fill-opacity:1;stroke-width:1.30556;stroke-linecap:round"
       d="m 58.693965,99.941274 a 2.6356855,2.6549328 0 0 0 -2.635689,2.654796 2.6356855,2.6549328 0 0 0 0.0039,0.0972 c -0.32743,-0.16195 -0.693834,-0.25265 -1.080621,-0.25265 -1.39022,0 -2.517228,1.17086 -2.517228,2.61532 0,0.93574 0.555372,2.10014 1.42242,2.36083 0.506276,0.15226 0.946363,0.10533 1.437846,0.10951 0.02957,3.1e-4 0.05883,7e-5 0.08792,-6.6e-4 l 8.822021,-0.005 c 0.01142,1e-4 0.02284,3.2e-4 0.03426,3.2e-4 0.427407,0 0.977756,0.0359 1.297177,-0.13882 0.57787,-0.3161 0.984992,-1.02182 0.984992,-2.01933 0,-1.48291 -1.058511,-2.68504 -2.36423,-2.68504 -0.204457,0 -0.402757,0.0294 -0.591975,0.0848 a 2.3592841,2.3395412 0 0 0 -2.107865,-1.28913 2.3592841,2.3395412 0 0 0 -0.389614,0.0333 2.6356855,2.6549328 0 0 0 -2.403093,-1.564626 z" />
  </g>
</svg>
