<svg width="621" height="621" viewBox="0 0 621 621" fill="none" xmlns="http://www.w3.org/2000/svg">
<g clip-path="url(#clip0_203_2)">
<mask id="mask0_203_2" style="mask-type:luminance" maskUnits="userSpaceOnUse" x="-1" y="0" width="622" height="621">
<path d="M310.422 620.847C481.865 620.847 620.846 481.866 620.846 310.424C620.846 138.981 481.865 -3.05176e-05 310.422 -3.05176e-05C138.98 -3.05176e-05 -0.0012207 138.981 -0.0012207 310.424C-0.0012207 481.866 138.98 620.847 310.422 620.847Z" fill="white"/>
</mask>
<g mask="url(#mask0_203_2)">
<path d="M310.424 620.847C481.866 620.847 620.848 481.866 620.848 310.423C620.848 138.981 481.866 -0.00012207 310.424 -0.00012207C138.982 -0.00012207 0 138.981 0 310.423C0 481.866 138.982 620.847 310.424 620.847Z" fill="white"/>
<path d="M135.791 509.05C133.075 530.39 124.573 562.189 129.579 621.579C144.156 621.938 173.968 621.21 195.943 621.21C192.994 573.025 201.046 544.535 199.17 532.998C194.13 526.721 173.877 515.608 162.806 515.436C152.453 515.436 143.865 507.582 135.791 509.05Z" fill="#FFE4D4"/>
<path d="M485.949 507.866C488.665 529.206 498.027 559.9 493.021 619.29C478.444 619.649 447.895 619.412 425.92 619.412C428.869 571.228 415.66 540.404 417.536 528.867C422.575 522.59 447.863 514.424 458.935 514.252C469.287 514.252 477.875 506.398 485.949 507.866Z" fill="#FFE4D4"/>
<path d="M262.731 420.808C272.798 419.119 274.903 405.338 274.019 396.496C291.098 384.368 327.186 374.474 337.751 397.365C336.061 408.36 340.631 419.8 350.949 423.239C350.489 457.422 314.551 466.769 286.522 458.145C279.81 456.079 271.129 455.218 266.551 449.114C263.681 445.287 265.003 439.701 263.773 435.395C262.394 430.57 261.267 425.565 262.731 420.808Z" fill="#FFE4D4" stroke="#303030" stroke-width="1.88976" stroke-linecap="round" stroke-linejoin="round"/>
<path d="M220.901 485.893C209.561 497.348 209.716 620.649 215.007 621.949C404.038 620.017 215.007 621.949 403.619 619.494C406.16 614.321 403.544 598.505 404.747 579.193C407.668 532.319 396.129 482.731 387.901 479.017C382.768 476.7 317.771 487.466 292.613 485.893C268.037 484.357 244.673 483.732 220.901 485.893Z" fill="#F5AAB9"/>
<path d="M208.651 316.818C179.166 307.405 183.835 277.4 207.768 270.603Z" fill="#FFE4D4"/>
<path d="M208.651 316.818C179.166 307.405 183.835 277.4 207.768 270.603" stroke="#303030" stroke-width="1.88976" stroke-linecap="round"/>
<path d="M401.897 319.649C427.544 310.262 424.443 278.211 398.136 273.755Z" fill="#FFE4D4"/>
<path d="M401.897 319.649C427.544 310.262 424.443 278.211 398.136 273.755" stroke="#303030" stroke-width="1.88976" stroke-linecap="round"/>
<path d="M206.215 291.007C207.471 312.251 211.831 342.541 222.363 359.483C233.025 376.635 249.635 389.439 266.291 395.073C294.618 404.655 332.247 403.072 354.767 394.453C376.208 386.246 387.248 370.909 393.429 356.674C407.085 325.22 404.858 272.356 387.235 248.996C333.615 170.144 204.846 194.989 206.215 291.007Z" fill="#FFE4D4" stroke="#303030" stroke-width="1.88976" stroke-linecap="round"/>
<path d="M303.59 307.139C303.078 327.038 303.59 307.139 303.078 327.038" stroke="#303030" stroke-width="1.88976" stroke-linecap="round"/>
<path d="M284.242 351.973C297.981 366.045 312.507 365.29 324.897 353.138" stroke="#303030" stroke-width="1.88976" stroke-linecap="round"/>
<path d="M278.642 284.411C293.453 275.974 313.225 276.336 327.39 284.062" stroke="#303030" stroke-width="1.88976" stroke-linecap="round" stroke-linejoin="round"/>
<path d="M376.487 284.847C386.349 283.472 395.831 277.693 404.73 275.023Z" fill="#FFE4D4"/>
<path d="M376.487 284.847C386.349 283.472 395.831 277.693 404.73 275.023" stroke="#303030" stroke-width="1.88976" stroke-linecap="round" stroke-linejoin="round"/>
<path d="M325.39 280.062C324.623 272.232 323.352 242.854 328.342 237.863C341.23 251.453 355.862 261.827 367.092 269.386C370.114 271.421 371.545 271.046 369.598 267.577C365.863 260.924 358.536 246.911 361.495 236.064C386.385 251.082 396.739 275.054 396.487 290.114C396.381 296.464 398.1 296.708 400.321 293.142C413.805 271.493 424.5 249.212 411.35 226.749C437.536 237.267 474.27 238.334 480.64 204.087C463.182 218.154 411.579 200.351 413.087 188.892C417.726 184.643 431.274 184.774 437.345 183.677C440.513 182.893 442.283 182.698 439.784 179.397C406.03 133.718 354.323 147.105 350.533 144.156C354.096 138.462 364.34 123.294 369.662 116.74C371.677 114.295 370.285 112.625 367.494 112.926C352.713 113.664 329.778 127.077 320.007 138.705C295.397 144.376 286.152 147.366 264.598 157.762C262.807 158.35 262.071 158.491 260.934 157.638C248.651 146.949 250.596 128.606 252.787 119.968C253.078 118.332 252.095 117.487 249.607 118.013C218.255 127.669 231.574 169.295 232.048 172.185C229.706 172.701 197.558 185.44 195.163 198.029C194.824 199.806 195.394 201.55 197.882 201.514C203.091 201.361 215.033 198.476 219.341 201.348C217.967 202.791 187.098 223.12 187.612 267.606C187.632 269.364 189.113 269.727 190.708 269.423C208.187 265.008 220.98 257.885 220.98 257.885C220.98 257.885 219.054 267.959 221.886 273.228C223.076 275.36 224.928 276.46 226.815 275.568C256.282 269.112 271.927 240.286 292.916 220.845C291.245 235.856 309.018 277.63 321.182 291.226C327.3 298.064 326.016 286.445 325.39 280.062Z" fill="#FCECB8" stroke="#303030" stroke-width="1.88976" stroke-linecap="round" stroke-linejoin="round"/>
<path d="M229.625 284.11C217.519 276.148 207.899 269.875 207.768 270.603Z" fill="#FFE4D4"/>
<path d="M229.625 284.11C217.519 276.148 207.899 269.875 207.768 270.603" stroke="#303030" stroke-width="1.88976" stroke-linecap="round" stroke-linejoin="round"/>
<path d="M253.632 291.846C248.712 290.091 251.92 283.089 257.139 284.464C263.16 286.051 259.313 293.432 253.632 291.846Z" fill="#303030" stroke="#303030" stroke-width="1.88976" stroke-linecap="round" stroke-linejoin="round"/>
<path d="M356.729 290.23C353.235 294.113 347.795 288.952 351.052 284.649C354.81 279.684 360.356 285.579 356.729 290.23Z" fill="#303030" stroke="#303030" stroke-width="1.88976" stroke-linecap="round" stroke-linejoin="round"/>
<path d="M234.161 272.121L272.542 270.654C276.434 270.631 276.69 270.766 277.348 273.947C288.566 328.398 226.324 329.089 229.68 276.559C229.737 272.409 230.049 272.278 234.161 272.121Z" stroke="#303030" stroke-width="1.88976" stroke-linecap="round" stroke-linejoin="round"/>
<path d="M339.634 327.436C342.83 322.433 343.847 320.012 346.876 315.942" stroke="#FA5F91" stroke-opacity="0.717252" stroke-width="1.88976" stroke-linecap="round" stroke-linejoin="round"/>
<path d="M332.097 271.073L370.478 269.606C374.37 269.583 374.626 269.718 375.284 272.899C386.502 327.35 324.26 328.041 327.616 275.511C327.673 271.361 327.985 271.23 332.097 271.073Z" stroke="#303030" stroke-width="1.88976" stroke-linecap="round" stroke-linejoin="round"/>
<path d="M240.975 328.096C244.171 323.093 245.187 320.672 248.216 316.602" stroke="#FA5F91" stroke-opacity="0.717252" stroke-width="1.88976" stroke-linecap="round" stroke-linejoin="round"/>
<path d="M248.6 328.464C251.491 323.884 252.586 322.086 255.841 317.729" stroke="#FA5F91" stroke-opacity="0.717252" stroke-width="1.88976" stroke-linecap="round" stroke-linejoin="round"/>
<path d="M256.937 328.575C260.301 323.672 261.887 321.071 264.269 317.587" stroke="#FA5F91" stroke-opacity="0.717252" stroke-width="1.88976" stroke-linecap="round" stroke-linejoin="round"/>
<path d="M347.259 327.804C350.151 323.224 351.245 321.426 354.5 317.069" stroke="#FA5F91" stroke-opacity="0.717252" stroke-width="1.88976" stroke-linecap="round" stroke-linejoin="round"/>
<path d="M355.596 327.915C358.96 323.012 360.546 320.411 362.928 316.927" stroke="#FA5F91" stroke-opacity="0.717252" stroke-width="1.88976" stroke-linecap="round" stroke-linejoin="round"/>
<path d="M217.372 497.12C216.703 504.48 214.815 522.568 210.269 532.336C209.029 535 207.908 536.627 204.521 537.061C195.966 538.158 136.483 522.394 130.109 518.914C126.666 517.034 125.982 513.976 126.385 510.248C131.976 458.408 193.7 415.136 257.767 418.353C261.222 418.594 261.729 418.539 262.483 421.337C275.08 467.893 339.973 448.371 350.346 425.866C352.049 422.255 351.729 422.285 356.162 421.607C433.406 417.753 487.443 457.08 495.857 519.378C496.084 523.02 493.326 525.262 490.398 526.443C470.906 532.787 455.792 536.652 413.889 538.139C410.997 537.904 410.048 536.12 408.824 534.077C405.18 525.185 398.839 512.688 393.113 497.815" fill="#F5AAB9"/>
<path d="M217.372 497.12C216.703 504.48 214.815 522.568 210.269 532.336C209.029 535 207.908 536.627 204.521 537.061C195.966 538.158 136.483 522.394 130.109 518.914C126.666 517.034 125.982 513.976 126.385 510.248C131.976 458.408 193.7 415.136 257.767 418.353C261.222 418.594 261.729 418.539 262.483 421.337C275.08 467.893 339.973 448.371 350.346 425.866C352.049 422.255 351.729 422.285 356.162 421.607C433.406 417.753 487.443 457.08 495.857 519.378C496.084 523.02 493.326 525.262 490.398 526.443C470.906 532.787 455.792 536.652 413.889 538.139C410.997 537.904 410.048 536.12 408.824 534.077C405.18 525.185 398.839 512.688 393.113 497.815" stroke="#303030" stroke-width="1.88976" stroke-linecap="round" stroke-linejoin="round"/>
<path d="M213.497 523.07C211.622 554.968 211.057 591.171 214.157 620.504" stroke="#303030" stroke-width="1.88976" stroke-linecap="round" stroke-linejoin="round"/>
<path d="M401.505 517.766C406.132 550.696 405.044 588.109 404.038 620.017" stroke="#303030" stroke-width="1.88976" stroke-linecap="round" stroke-linejoin="round"/>
<path d="M133.6 521.103C128.345 552.426 126.419 590.2 129.527 621.278" stroke="#303030" stroke-width="1.88976" stroke-linecap="round" stroke-linejoin="round"/>
<path d="M199.488 537.007C194.771 563.033 195.382 594.845 195.733 620.733" stroke="#303030" stroke-width="1.88976" stroke-linecap="round" stroke-linejoin="round"/>
<path d="M488.398 528.443C492.899 552.25 496.698 586.058 492.908 618.966" stroke="#303030" stroke-width="1.88976" stroke-linecap="round" stroke-linejoin="round"/>
<path d="M417.657 538.722C422.657 562.662 428.454 591.837 425.642 618.877" stroke="#303030" stroke-width="1.88976" stroke-linecap="round" stroke-linejoin="round"/>
<path d="M382.71 406.489C360.371 415.324 373.567 435.266 380.266 438.118C388.353 441.56 401.652 441.389 408.351 429.449C402.002 442.213 410.225 451.152 420.645 452.863C433.445 454.964 440.124 451.313 445.105 440.752C445.471 455.985 453.606 467.756 469.363 461.021C490.216 452.108 477.683 432.743 472.931 430.373C477.335 407.834 466.503 393.757 449.956 386.331C428.601 377.179 394.253 379.261 382.71 406.489Z" fill="#83C2BA" stroke="#303030" stroke-width="1.88976" stroke-linecap="round" stroke-linejoin="round"/>
<path d="M252.906 419.499C257.685 485.192 366.079 457.573 359.981 422.194" stroke="#303030" stroke-width="1.88976" stroke-linecap="round" stroke-linejoin="round"/>
<path d="M422.483 418.836C430.723 410 435.592 416.093 435.483 422.988" stroke="#303030" stroke-width="1.88976" stroke-linecap="round" stroke-linejoin="round"/>
<path d="M445.725 408.264C449.217 406.628 453.652 405.888 457.368 406.078C459.266 410.613 457.875 416.1 453.662 417.048C450.428 417.775 445.903 415.34 445.725 408.264Z" fill="#303030" stroke="#303030" stroke-width="1.88976" stroke-linecap="round" stroke-linejoin="round"/>
<path d="M418.9 391.26C421.776 393.829 424.197 397.617 425.482 401.11C422.057 404.636 416.465 405.511 413.938 402.008C411.999 399.321 412.462 394.202 418.9 391.26Z" fill="#303030" stroke="#303030" stroke-width="1.88976" stroke-linecap="round" stroke-linejoin="round"/>
<path d="M452.307 410.602C452.661 410.545 452.848 409.896 452.725 409.154C452.602 408.411 452.215 407.855 451.862 407.912C451.508 407.969 451.32 408.618 451.443 409.361C451.567 410.104 451.953 410.659 452.307 410.602Z" fill="white" stroke="white" stroke-width="1.24152" stroke-linecap="round" stroke-linejoin="round"/>
<path d="M418.621 398.283C418.86 398.57 419.572 398.409 420.21 397.924C420.849 397.439 421.172 396.813 420.933 396.526C420.694 396.239 419.983 396.4 419.344 396.885C418.706 397.37 418.382 397.996 418.621 398.283Z" fill="white" stroke="white" stroke-width="1.30766" stroke-linecap="round" stroke-linejoin="round"/>
</g>
</g>
<defs>
<clipPath id="clip0_203_2">
<rect width="620.846" height="620.847" fill="white"/>
</clipPath>
</defs>
</svg>
