<?xml version="1.0" encoding="UTF-8" standalone="no"?>
<svg
   width="475.43073"
   height="453.0874"
   viewBox="0 0 475.43073 453.0874"
   fill="none"
   version="1.1"
   id="svg882"
   sodipodi:docname="Three.svg"
   inkscape:version="1.1.2 (b8e25be833, 2022-02-05)"
   xmlns:inkscape="http://www.inkscape.org/namespaces/inkscape"
   xmlns:sodipodi="http://sodipodi.sourceforge.net/DTD/sodipodi-0.dtd"
   xmlns="http://www.w3.org/2000/svg"
   xmlns:svg="http://www.w3.org/2000/svg">
  <defs
     id="defs886" />
  <sodipodi:namedview
     id="namedview884"
     pagecolor="#ffffff"
     bordercolor="#000000"
     borderopacity="0.25"
     inkscape:pageshadow="2"
     inkscape:pageopacity="0.0"
     inkscape:pagecheckerboard="0"
     showgrid="false"
     inkscape:zoom="1.7785389"
     inkscape:cx="248.5186"
     inkscape:cy="236.99229"
     inkscape:window-width="1920"
     inkscape:window-height="1001"
     inkscape:window-x="-9"
     inkscape:window-y="-9"
     inkscape:window-maximized="1"
     inkscape:current-layer="layer2"
     fit-margin-top="0"
     fit-margin-left="0"
     fit-margin-right="0"
     fit-margin-bottom="0" />
  <g
     inkscape:groupmode="layer"
     id="layer2"
     inkscape:label="cercle"
     style="display:inline"
     transform="translate(14.084144,4.8468809)">
    <circle
       style="fill:none;stroke:#000000;stroke-width:3.81603;stroke-linecap:round;stroke-linejoin:round;stroke-miterlimit:4;stroke-dasharray:none"
       id="path990"
       cx="208.13515"
       cy="150.6321"
       r="145.04128"
       transform="rotate(-1.63811)" />
    <circle
       style="fill:none;stroke:#000000;stroke-width:3.81603;stroke-linecap:round;stroke-linejoin:round;stroke-miterlimit:4;stroke-dasharray:none"
       id="path990-9"
       cx="133.91692"
       cy="295.69495"
       r="145.04128"
       transform="rotate(-1.63811)" />
    <circle
       style="fill:none;stroke:#000000;stroke-width:3.81603;stroke-linecap:round;stroke-linejoin:round;stroke-miterlimit:4;stroke-dasharray:none"
       id="path990-9-2"
       cx="281.79108"
       cy="295.69492"
       r="145.04128"
       transform="rotate(-1.63811)" />
    <path
       style="opacity:0.85;fill:none;stroke:#b2d3ec;stroke-width:11.3386;stroke-linecap:round;stroke-linejoin:round;stroke-miterlimit:4;stroke-dasharray:none;stroke-opacity:1"
       d="m 68.515929,120.60976 c 4.65168,-11.55026 11.31881,-21.939404 17.63082,-32.566083 5.28103,-8.890983 10.37275,-17.638261 14.981391,-26.865439 4.77425,-9.558747 3.44264,-6.958989 10.24459,-15.480179 -0.35198,2.107724 3.72846,-7.306818 3.78956,-5.17078 0.0986,3.44922 -3.96609,6.743858 -5.34707,9.715236 -3.1448,6.766465 -6.27813,13.549486 -8.97586,20.506298 -3.933441,10.143326 -20.081771,76.852897 -26.300771,83.438067 -5.35236,5.6675 6.79839,-14.03125 10.08385,-21.10048 12.4953,-26.88559 26.386091,-52.852195 41.636301,-78.251742 4.01615,-6.68898 8.18304,-14.168858 12.91009,-20.618811 0.49545,-0.67605 1.89758,-2.30423 1.05955,-2.280366 -6.52969,0.186744 -32.26443,81.507389 -35.54988,94.389859 -1.64341,6.44391 -2.70064,13.43636 -4.4957,19.8157 -0.690501,2.45389 -2.951961,9.75083 -2.039181,7.37068 14.595531,-38.05886 35.891011,-72.121624 57.131511,-106.819336 6.33903,-10.35523 12.14798,-20.605378 17.66295,-31.442038 1.56051,-3.066323 8.24026,-9.235483 4.8011,-9.137125 -1.77729,0.05082 -0.79207,3.494095 -1.54143,5.106476 -12.12496,26.088795 -26.7668,51.211948 -39.42033,77.06339 -4.34588,8.878758 -13.99986,23.117543 -15.36661,33.063843 -0.1786,1.29972 -1.1989,3.97171 0.11251,3.9342 2.0594,-0.0589 56.19625,-77.211916 61.67648,-85.574723 4.75878,-7.261876 9.07449,-14.806765 13.42388,-22.320975 2.85554,-4.933328 7.2715,-21.097652 7.43446,-15.399822 0.32619,11.406253 -16.9424,27.796768 -22.54444,37.769014 -11.78895,20.985665 -20.40763,43.587034 -30.18728,65.549566 -3.9104,8.78172 -6.27169,20.02392 -10.99896,28.439 -0.27683,0.4928 -4.36515,8.56217 -3.69312,8.54296 6.62093,-0.18935 4.67204,-12.45122 7.91611,-18.22604 18.90634,-33.655395 41.60304,-64.833937 63.04111,-96.863534 0.26661,-0.398386 16.53903,-23.428796 16.78,-22.979446 1.42008,2.648046 -9.46938,17.474425 -12.84579,22.866925 -15.36716,24.543047 -25.73999,52.726243 -34.26562,80.290915 -2.88745,9.33554 -6.49376,18.4363 -9.32895,27.82876 -0.78859,2.61245 -4.75086,8.01072 -2.02309,7.93271 2.96214,-0.0847 1.36542,-5.80289 2.56905,-8.51082 13.77612,-30.99397 31.82257,-61.312298 48.58907,-90.825333 5.70831,-10.047987 12.13941,-19.632444 17.71118,-29.755939 2.13277,-3.875121 7.43658,-15.325048 7.56303,-10.903588 0.1547,5.409873 -18.32025,36.654204 -20.21595,40.514867 -13.4919,27.476862 -22.97178,55.230183 -32.46701,84.176903 -1.09206,3.3292 -10.69179,24.35431 -8.81515,26.1266 3.2503,3.06957 4.87178,-7.50982 6.98492,-11.44954 4.24206,-7.9088 8.22437,-15.9546 12.25162,-23.97492 13.65881,-27.201706 26.81227,-54.528275 42.69606,-80.532008 11.91373,-19.504259 7.91039,-12.968379 16.73178,-24.665533 2.32642,-3.084854 6.93876,-13.06359897 7.04921,-9.201419 0.21401,7.483364 -19.10504,27.664415 -23.20289,34.412907 -12.18528,20.067209 -13.67136,22.05545 -21.40428,38.2989 -7.84237,16.473334 -20.72043,42.543413 -20.16719,61.888073 0.16329,5.71013 7.05645,-8.99584 10.87091,-13.24815 19.91944,-22.20595 -0.4275,3.52924 24.40731,-31.634909 15.5884,-22.071953 29.18704,-44.313401 43.64383,-67.059367 3.77952,-5.946581 7.73554,-11.669567 11.30438,-17.760447 0.47376,-0.808513 1.59501,-3.23304 1.62178,-2.296331 0.11744,4.106626 -42.65796,78.172554 -43.29023,79.424017 -4.19057,8.294162 -24.00594,70.794447 -32.16216,75.168347 -4.02214,2.15693 2.40695,-8.82764 4.12655,-13.05526 4.83344,-11.88293 9.57971,-23.83076 15.30233,-35.31195 11.59145,-23.255704 28.25544,-43.711153 43.1461,-64.795176 1.76007,-2.492114 9.03919,-7.008376 5.98945,-6.921161 -4.62703,0.132319 -4.52698,8.079104 -6.96885,12.011567 -11.60243,18.685014 -25.09784,37.68288 -33.20638,58.32354 -4.43814,11.2975 -6.58171,27.88376 -11.81764,39.14971 -1.49041,3.20682 3.30477,-6.27777 5.36314,-9.15319 4.88973,-6.83074 10.30147,-13.27823 15.17427,-20.12108 15.18654,-21.32638 30.17424,-43.470438 43.67598,-65.935312 4.50367,-7.493435 8.20615,-15.456926 12.84579,-22.86693 0.1418,-0.226544 2.18101,-2.410528 2.18383,-2.312419 0.34914,12.208563 -17.42803,33.417636 -22.97787,42.281327 -12.64331,20.192763 -18.51868,42.144384 -25.7232,64.296924 -1.68259,5.17369 3.71807,-2.77683 17.30988,-24.11958 16.65615,-26.15454 32.95557,-58.057958 54.49869,-80.86954 3.04495,-3.224244 -5.35596,10.925581 -17.08486,31.987989 -11.37728,20.431003 -21.2118,40.465651 -28.58156,62.691191 -1.49228,4.50042 -8.84993,13.75283 -4.11047,13.61729 3.63754,-0.10403 3.91887,-6.13325 5.92515,-9.16927 12.06227,-18.25339 22.13219,-37.090562 35.56701,-54.453632 3.5108,-4.537338 10.12881,-19.52875 10.29281,-13.794092 0.0493,1.72492 -39.27283,71.996774 -32.2586,71.796174 13.10291,-0.37472 31.63585,-23.02908 39.5821,-32.06888 3.23854,-3.684206 6.24488,-14.335847 9.81115,-10.967876 0.96095,0.907504 -23.05878,35.368876 -33.3189,54.389326 -1.31375,2.43548 -6.49134,7.498 -3.72524,7.41889 2.96776,-0.0849 29.54155,-44.59909 35.66344,-51.08143 0.51474,-0.54505 0.33723,1.54988 0.0643,2.2481 -0.73043,1.86859 -19.15361,43.29694 -19.0115,43.29288 1.42622,-0.0408 17.09909,-23.8893 19.47762,-26.99402 0.66461,-0.86751 1.08925,-3.82146 1.60572,-2.85835 3.19956,5.96636 -7.67125,29.27844 -9.13608,34.5731 -3.25752,11.77448 -0.95438,3.93985 -3.01856,12.4611 -0.18193,0.75102 -1.27017,2.28628 -0.49774,2.26419 6.41182,-0.18336 16.15603,-16.15751 17.90405,-23.01161"
       id="path2857" />
    <path
       style="opacity:0.85;fill:none;stroke:#faedcb;stroke-width:11.3386;stroke-linecap:round;stroke-linejoin:round;stroke-miterlimit:4;stroke-dasharray:none;stroke-opacity:1"
       d="m 364.99816,163.52847 c 5.29978,3.65145 2.69477,1.68967 10.27915,8.5414 12.50918,11.3008 24.87736,22.68723 37.58462,33.75267 1.39149,1.21171 28.73537,23.4253 24.28264,25.03683 -3.21595,1.16391 -5.81283,-3.64238 -8.44904,-5.82125 -18.27715,-15.10627 -36.19831,-30.28485 -55.94603,-43.5971 -0.22315,-0.15038 -18.1961,-10.19723 -18.3614,-9.84443 -0.0823,0.17563 10.72674,8.03292 20.5583,17.08281 6.85192,6.30718 50.94837,50.81701 54.62886,60.98641 2.35217,6.49914 -11.24953,-8.07519 -16.42099,-12.66079 -12.65791,-11.22396 -24.81137,-22.15693 -38.0617,-32.73436 -4.02201,-3.21069 -15.42706,-13.25638 -12.55428,-8.98644 8.06047,11.9806 25.80899,25.99188 34.86444,35.58277 14.39414,15.24526 27.54057,31.33752 40.21242,48.02295 4.61418,6.07564 9.1791,12.18861 13.79701,18.26141 1.26834,1.66796 5.54249,3.6316 3.89876,4.93119 -0.7716,0.61005 -56.90175,-56.64602 -67.32553,-65.69316 -7.03879,-6.1092 -14.03914,-12.2731 -21.33805,-18.06905 -6.35375,-5.04542 -25.7326,-19.16759 -20.70065,-12.80314 19.18722,24.26815 43.45999,46.33863 64.39886,69.28925 5.16055,5.65636 10.58219,11.07008 15.76948,16.70191 1.36755,1.48474 5.9652,5.27843 4.13731,4.42203 C 422.55739,292.32517 377.21565,241.4107 367,232.14558 355.89867,222.07719 350.78729,216.3897 349.79925,218.49857 c -1.38865,2.96395 5.4137,3.75087 7.70135,6.09184 4.69561,4.80504 8.90861,10.06028 13.46228,15.00004 19.47011,21.1209 38.31447,42.11203 56.96814,63.9451 4.4131,5.1653 8.81582,10.33947 13.22374,15.50919 0.608,0.71308 2.00026,3.12714 1.32098,2.48161 -33.78655,-32.10574 -60.46349,-70.01626 -99.07097,-97.33099 -4.76513,-3.37132 -11.38344,-13.44965 -15.06797,-8.92231 -5.19455,6.38277 8.78583,13.98213 14.09967,20.26594 28.09594,33.22435 57.05748,66.63857 86.77316,98.39928 3.64427,3.89506 -8.03623,-7.05429 -11.60012,-11.02303 -19.57875,-21.80295 -36.37711,-44.54999 -59.2112,-63.13329 -7.72618,-6.28788 -15.77667,-12.17185 -23.85174,-18.00494 -1.06349,-0.76822 -4.37771,-2.69894 -3.56403,-1.66981 23.47781,29.69491 48.81774,57.98754 72.65936,87.44037 9.47244,11.70181 16.11991,21.25503 16.61335,20.20183 1.23773,-2.6418 -74.10242,-82.18028 -76.87491,-85.06905 -10.82892,-11.28304 -9.15716,-10.18736 -20.11328,-19.35795 -2.19846,-1.84018 -7.34962,-7.94046 -6.9216,-5.10562 1.7964,11.89745 49.41349,61.82779 60.24745,74.17426 11.07034,12.61585 21.88969,25.45479 33.16258,37.88998 3.58254,3.95191 16.43032,13.28606 11.60011,11.02303 -12.13471,-5.6853 -43.40849,-39.29617 -44.02912,-39.87657 -24.79107,-23.18469 -31.94397,-30.84413 -55.86777,-50.39046 -10.73723,-8.77256 -21.6454,-17.3356 -32.60345,-25.83071 -1.3413,-1.03983 -5.22311,-4.10764 -4.34379,-2.65604 7.14105,11.78844 18.64922,20.29921 27.94286,30.47716 23.20162,25.4093 50.6196,52.26103 68.49,81.76149 1.47908,2.44164 -3.87353,-4.19795 -5.69682,-6.39451 -5.03332,-6.06373 -9.88157,-12.28371 -15.05384,-18.22935 -18.97214,-21.80892 -39.06039,-48.36841 -64.27064,-64.2619 -3.91572,-2.46861 4.66489,8.04163 7.59104,11.62836 25.15736,30.83717 52.07766,70.39274 83.41561,94.96349 5.83473,4.57475 -10.57773,-10.40853 -15.49888,-15.95422 -17.31697,-19.51472 -64.07525,-79.59963 -94.39245,-91.41357 -7.60792,-2.96463 8.39536,14.048 13.35198,20.53655 23.17481,30.33744 40.95632,51.29357 65.19656,80.83938 6.59308,8.03613 13.18352,16.07455 19.73236,24.14677 1.90396,2.34686 7.95632,8.69494 5.21973,7.41281 -7.32312,-3.431 -45.11081,-58.92225 -55.90365,-71.51822 -3.39706,-3.96457 -7.24068,-7.52358 -10.85241,-11.29363 -2.9933,-3.1245 -7.69572,-12.73022 -9.53147,-8.812 -2.14836,4.58546 3.88703,9.41282 6.63687,13.66493 16.23705,25.10753 31.80066,51.52223 49.71562,75.44905 5.28075,7.05284 -10.00949,-14.5126 -15.38857,-21.49073 -7.36937,-9.56011 -14.85555,-19.04904 -22.85137,-28.09173 -5.14433,-5.81786 -10.71794,-11.26598 -16.51717,-16.4313 -1.11963,-0.99725 -4.29704,-3.39091 -4.07319,-1.90836 1.62114,10.7367 27.32792,50.16146 33.19845,59.01773 4.31919,6.51592 28.96203,32.02912 5.15561,4.89913 -7.53143,-8.58288 -15.03081,-17.19795 -22.78725,-25.57804 -11.7437,-12.68796 -29.70362,-35.86563 -47.32256,-40.79869 -1.26336,-0.35372 -2.23396,2.37959 -1.66981,3.56403 4.35872,9.15127 10.19201,17.53587 15.75536,26.00895 12.38099,18.85641 26.31881,36.85627 42.34518,52.74766 4.57936,4.54078 -5.73967,-11.61247 -9.48527,-16.86222 -6.96157,-9.75718 -14.3798,-19.19675 -22.10368,-28.36233 -2.78829,-3.30872 -11.40939,-12.71016 -9.53145,-8.81201 10.73891,22.29142 11.25825,22.0403 27.10277,46.84818 1.04288,1.63293 13.63295,20.37839 13.08138,19.78885 -22.77649,-24.34395 -38.92478,-60.73165 -67.91673,-79.00926 -5.71856,-3.60519 3.88211,13.08342 7.27425,18.93087 6.80884,11.73726 30.31808,45.57679 36.87279,55.15102 2.37927,3.47531 9.42343,13.94597 6.81129,10.64213 -12.15213,-15.37012 -22.38697,-33.22103 -36.17128,-47.37144 -3.18197,-3.26647 -7.52477,-5.1535 -11.26538,-7.76165 -0.78393,-0.5466 -2.44988,-2.64682 -2.30721,-1.70188 3.78383,25.06015 35.51254,46.52386 33.51905,71.58614 -0.63083,7.93092 -12.92107,-9.47432 -18.25109,-15.38094 -7.81505,-8.66048 -15.26934,-17.6414 -23.05787,-26.32574 -26.40772,-29.44502 22.95708,46.27064 7.07158,40.56777 -28.0038,-10.0533 -49.6842,-60.17483 -29.54474,-4.52853"
       id="path3403" />
    <path
       style="opacity:0.85;fill:none;stroke:#d5b5e2;stroke-width:11.3386;stroke-linecap:round;stroke-linejoin:round;stroke-miterlimit:4;stroke-dasharray:none;stroke-opacity:1"
       d="m 210.28086,420.02661 c -9.47078,5.24469 -18.99959,11.23049 -29.62511,13.89049 -12.50245,3.12987 -25.19121,0.88818 -37.76118,2.97903 -0.4199,0.0698 -2.68735,0.91145 -3.00655,0.35858 -0.096,-0.16618 5.00018,-2.77543 13.87901,-6.17672 5.43271,-2.08112 55.00397,-25.13515 59.11898,-24.03253 2.04816,0.5488 -3.57016,2.32207 -5.50899,3.18062 -4.56307,2.0206 -9.37085,3.44673 -14.13107,4.94499 -6.13197,1.93001 -12.3743,3.49016 -18.56813,5.21133 -19.74621,5.48713 -39.7531,9.61349 -59.95695,13.03926 -4.60373,0.78061 -9.71644,0.83335 -14.14534,1.73966 -0.12338,0.0253 -2.442441,0.85416 -2.463451,0.50411 -0.12053,-2.00808 63.995681,-27.20417 69.647131,-29.65189 0.70993,-0.30745 14.47199,-7.53511 14.31558,-7.80602 -0.13819,-0.23936 -3.84027,3.16455 -14.36885,6.91862 -4.81979,1.71853 -29.28124,9.29315 -34.61955,10.80594 -15.07613,4.27235 -29.63062,7.55716 -44.977461,10.35894 -0.40881,0.0746 -8.64687,1.38078 -9.70828,1.47333 -1.06441,0.0928 -3.73956,-0.91104 -3.20534,0.0143 1.26074,2.18366 4.06474,-3.04116 6.34315,-4.12129 7.40232,-3.50928 17.06885,-7.67017 24.460431,-10.90866 8.29788,-3.63558 16.47104,-7.55475 24.80474,-11.10745 15.16138,-6.46337 31.08598,-12.4385 45.42448,-20.71684 2.42109,-1.39782 -5.01866,2.48283 -7.62813,3.48594 -4.47195,1.71907 -18.54882,6.72866 -24.42144,8.59072 -20.04541,6.35593 -40.53821,11.31379 -61.028881,15.95356 -5.58032,1.26358 -17.84616,4.07635 -18.13156,3.58203 -1.32343,-2.29225 10.33022,-5.16123 27.0694,-11.95587 23.718871,-9.62778 47.630961,-19.69533 69.831651,-32.51291 3.09881,-1.78909 11.08552,-2.26849 9.29643,-5.36729 -1.39152,-2.41018 -4.74878,2.91516 -7.23056,4.17456 -7.10771,3.60688 -20.95708,7.98513 -26.143,9.58468 -18.67131,5.75899 -38.033011,10.33002 -56.989391,14.9986 -7.88941,1.94301 -15.85528,3.70649 -23.69382,5.87523 -2.757253,0.76287 -10.702056,3.88342 -8.224498,2.453 28.480448,-16.44319 60.419519,-26.15685 89.617229,-41.18162 1.47178,-0.75736 10.65475,-3.91941 11.21678,-6.01693 0.93306,-3.48225 -7.04824,1.52668 -10.54243,2.41401 -11.71532,2.97505 -13.39505,3.64223 -27.24347,6.08828 -17.905311,3.16264 -35.449221,6.25998 -53.162961,10.49402 -4.05467,0.96916 -15.453421,3.36912 -20.197438,4.77475 -0.647909,0.19197 -2.095272,1.30231 -1.92035,0.64963 0.782167,-2.91908 5.862089,-1.47633 8.767601,-2.30748 31.057817,-8.88443 63.721388,-16.57066 93.568278,-28.77212 5.18858,-2.1211 14.00427,-1.21318 15.45506,-6.62756 0.79666,-2.97322 -7.93248,-0.53842 -23.56258,2.12678 -27.3672,4.66659 -54.245421,11.84581 -81.691425,15.94694 -4.698472,0.70208 -9.433057,1.1372 -14.145339,1.73966 -3.018717,0.38593 -5.986367,1.12678 -9.019655,1.07575 -0.41902,-0.007 -1.594657,0.4616 -1.231721,0.25206 28.660924,-16.54739 67.684649,-19.13784 98.6797,-32.64136 3.6816,-1.60396 7.35114,-3.78511 10.87246,-5.81815 1.03294,-0.59636 3.69518,-0.75615 3.09881,-1.78909 -2.26529,-3.92359 -91.728444,20.41424 -96.312331,21.63382 -6.280678,1.67103 -12.630503,3.07206 -18.965714,4.5227 -7.358948,1.68505 -16.5733225,3.19762 -16.2644745,2.04498 0.374858,-1.39901 25.3625615,-5.97916 35.1236585,-8.3425 27.08837,-6.55861 54.56575,-13.69867 80.920991,-22.84746 14.90798,-5.17505 11.68088,-3.50853 24.16939,-9.82245 1.06444,-0.53812 4.28907,-1.71233 3.09881,-1.7891 -9.06537,-0.58466 -25.12804,3.77115 -34.39605,5.627 -6.12403,1.22629 -12.16308,2.84974 -18.277081,4.12512 -13.15272,2.74365 -26.42737,5.14019 -39.61399,7.72141 -12.027147,2.35426 -26.099348,5.84149 -38.435532,6.58195 -2.635811,0.15821 5.15816,-1.13303 7.734665,-1.71111 6.465543,-1.45067 12.918125,-2.97467 19.310022,-4.72149 20.028815,-5.4736 39.866145,-12.34127 59.186516,-19.93978 8.64807,-3.4012 26.10451,-9.93861 18.8449,-9.50287 -20.03351,1.20248 -76.937703,22.77186 -95.396367,27.99124 -7.270086,2.0557 -14.53773,4.15721 -21.9189955,5.7687 -3.597477,0.7854 -10.521434,3.59513 -11.046535,-0.0495 -0.975625,-6.77154 12.602227,-5.40147 19.1502265,-7.38372 36.928432,-11.17922 72.91337,-24.0085 109.513171,-36.14157 6.4401,-2.13494 12.96969,-3.99454 19.40228,-6.152 3.18113,-1.06694 12.62885,-4.51528 9.40296,-3.59247 -19.88348,5.68788 -40.6469,6.90907 -60.752101,11.66202 -11.35677,2.68478 -22.4856,6.27752 -33.83867,8.97786 -6.686934,1.59049 -13.467398,2.77763 -20.250701,3.88734 -3.867011,0.63262 -16.353081,3.76751 -22.132058,2.21904 -5.110792,-1.36943 10.481777,-1.45419 15.721379,-2.1905 31.45081,-4.41974 62.11136,-9.48982 92.578161,-18.55973 3.51311,-1.04585 9.54046,0.23916 10.48916,-3.30143 0.1534,-0.57247 -1.18322,0.071 -1.77482,0.10654 -4.43707,0.26632 -8.89498,0.29354 -13.3112,0.79898 -6.50383,0.74435 -12.92289,2.11822 -19.41655,2.94665 -29.744461,3.79467 -63.424527,11.031 -93.7994405,10.08319 -4.785138,-0.14931 -11.673627,1.24987 -14.067357,-2.8962 -4.4053605,-7.6303 17.420523,-2.65502 26.1182795,-4.0614 10.3907,-1.68012 82.433918,-14.10304 87.942308,-18.63773 6.04269,-4.97453 -15.693391,-0.1866 -23.470311,0.69628 -21.15552,2.40169 -42.236012,6.57532 -63.428612,8.61648 -6.371663,0.61368 -12.7780275,0.90129 -19.17877454,0.97304 -1.034995,0.0116 -4.04712496,-0.21808 -3.05981296,-0.52882 24.3672705,-7.66951 48.7908605,-14.7086 73.7826995,-20.10341 13.98111,-3.018 40.562831,-3.67841 54.341421,-11.63348 2.56635,-1.48168 -5.92635,0.22912 -8.87413,0.53266 -6.8551,0.70586 -13.67714,1.7061 -20.502761,2.65561 -23.78404,3.30859 -47.688502,7.60283 -71.734916,3.77139 -3.516616,-0.56032 -6.900601,-1.76711 -10.318914,-2.76495 -0.636082,-0.18567 -2.344893,-0.36616 -1.828093,-0.78088 9.333259,-7.4897 67.209183,-10.77752 68.525753,-15.69106 0.39828,-1.48639 -40.590748,0.76733 -42.702345,0.78191 -2.359497,0.0163 -9.318696,-0.53135 -7.007044,-1.00439 17.357944,-3.55205 35.063569,-4.78018 52.382079,-8.66591 4.2653,-0.95701 8.40553,-2.4045 12.6083,-3.60675 0.52534,-0.15028 1.84924,0.0224 1.57603,-0.45084 -3.33007,-5.76786 -36.61504,-1.74158 -37.68318,-1.65682 -8.183523,0.64932 -39.436444,6.01605 -24.105679,1.98126 10.195166,-2.68319 10.340491,-1.21246 25.773969,-3.86262 6.46243,-1.1097 24.38435,-1.79726 18.91244,-5.41011 -4.41416,-2.91447 -25.054379,-2.30483 -27.034233,-2.29601 -5.098319,0.0227 -10.189324,0.38971 -15.284806,0.5612 -1.726947,0.0581 -6.889221,0.0229 -5.178954,-0.22351 2.876811,-0.41448 5.783558,-0.58464 8.675338,-0.87697 7.359601,-1.03548 14.74587,-1.89643 22.078795,-3.10645 4.54841,-0.75055 9.08088,-1.63794 13.54897,-2.77259 0.89915,-0.22834 3.26329,-1.02712 2.41019,-1.39153 -7.43273,-3.17494 -18.73684,-2.8698 -26.597669,-3.9253 -1.682062,-0.22586 -6.615152,-0.15139 -5.03343,-0.76661 7.337086,-2.8538 17.366969,-2.6815 23.839349,-6.41833"
       id="path4281" />
    <path
       style="opacity:0.85;fill:none;stroke:#ace4af;stroke-width:11.3386;stroke-linecap:round;stroke-linejoin:round;stroke-miterlimit:4;stroke-dasharray:none;stroke-opacity:1"
       d="m 225.02879,170.16311 c 3.52648,-6.64361 8.70045,-11.87335 13.51763,-17.4934 0.59509,-0.69427 4.7127,-4.88738 4.77093,-4.77093 2.95002,5.90003 -1.85032,22.23407 -2.78304,27.83042 -0.69331,4.15984 -2.622,14.86134 -1.59031,10.73459 4.12205,-16.48821 18.54977,-34.85045 30.61346,-46.91413 0.4275,-0.42751 -1.01554,10.1576 -1.19274,11.13216 -0.24855,1.36704 -12.38572,46.51655 -13.9152,46.51655 -3.56837,0 3.86214,-6.00902 5.56608,-9.14427 5.79432,-10.66155 10.3928,-22.26305 17.89098,-31.80619 0.54521,-0.69391 6.66593,-10.03232 7.55397,-9.14428 2.64773,2.64773 -18.68614,51.3704 -18.68614,62.02207 0,6.10482 5.24343,-11.04487 8.34913,-16.30068 0.44734,-0.75703 25.03322,-43.33593 31.40861,-43.33593 3.95363,0 -1.57113,7.76645 -2.78304,11.52974 -4.84717,15.05173 -11.85754,29.29508 -16.30067,44.52867 -1.50277,5.15234 -2.67367,10.40648 -4.37335,15.50552 -0.26506,0.79515 -1.63332,2.38546 -0.79516,2.38546 2.47579,0 0.97863,-4.89566 1.98789,-7.15639 9.26737,-20.75892 19.88217,-42.9426 33.79407,-60.82934 17.27523,-22.21101 -7.36565,23.84916 -9.93943,30.21588 -3.75058,9.27774 -5.90011,19.52238 -9.14428,29.02315 -1.6621,4.86757 -2.49798,8.28908 -3.97577,12.72247 -0.0289,0.0867 -0.47026,2.38547 -0.39758,2.38547 4.09116,0 3.49659,-7.39823 5.16851,-11.13217 2.87679,-6.42484 30.40954,-67.19057 34.19165,-67.19057 0.93101,0 -1.04203,3.64838 -6.75882,19.08371 -6.1362,16.56775 -12.38513,33.06379 -17.09582,50.09475 -1.74108,6.29465 -3.01984,13.05212 -4.37335,19.48129 -0.22012,1.04554 -1.03866,4.03539 -0.39758,3.18062 2.64068,-3.52091 35.7387,-73.37465 37.76985,-72.35908 3.16937,1.58468 -13.91521,35.57079 -13.91521,54.07052"
       id="path4495" />
    <path
       style="opacity:0.85;fill:none;stroke:#e99dcc;stroke-width:11.3386;stroke-linecap:round;stroke-linejoin:round;stroke-miterlimit:4;stroke-dasharray:none;stroke-opacity:1"
       d="m 65.202688,169.36796 c 1.325231,4.91598 11.927321,-14.63333 11.927321,-9.54186 0,16.01768 -12.592123,44.26796 -7.951547,34.98681 2.041912,-4.08382 28.705307,-41.26831 30.21588,-39.75774 6.605508,6.60551 -14.312785,41.48448 -14.312785,50.09475 0,3.09101 3.311289,-5.22689 4.770928,-7.95155 1.411492,-2.63478 26.645855,-49.689 30.215885,-46.11897 0.7208,0.7208 -18.15973,53.60724 -20.674028,60.43176 -7.064928,19.17623 -2.06944,2.07963 -4.770928,18.28856 -0.137794,0.82676 -1.135567,3.15139 -0.795155,2.38546 9.252281,-20.81764 22.609361,-40.74186 34.191651,-60.43176 0.38338,-0.65175 11.89967,-18.39918 11.92732,-18.28856 4.14074,16.56294 -18.55616,51.25621 -25.44495,64.40754 -0.30804,0.58808 -8.87286,17.4934 -7.95155,17.4934 4.13855,0 44.89701,-81.5326 50.09475,-76.33485 0.50034,0.50033 -21.43096,47.84695 -27.83041,69.17846 -0.46034,1.53446 -6.00207,22.26433 -5.56609,22.26433 1.12384,0 28.65938,-50.2168 39.75774,-67.58815 0.84794,-1.32721 11.66014,-21.15746 16.69825,-27.03526 1.21971,-1.423 5.84997,-3.97578 3.97577,-3.97578 -2.96336,0 -0.53933,5.97597 -1.59031,8.74671 -1.97627,5.21017 -4.70894,10.10179 -7.15639,15.10794 -13.87213,28.37482 -27.35705,56.70664 -36.57712,86.67186"
       id="path7119" />
    <path
       style="opacity:0.85;fill:none;stroke:#d6c1a1;stroke-width:11.3386;stroke-linecap:round;stroke-linejoin:round;stroke-miterlimit:4;stroke-dasharray:none;stroke-opacity:1"
       d="m 147.89878,295.00241 c 27.66025,-31.6864 -0.8544,35.78196 2.38547,35.78196 1.19785,0 29.28383,-48.77822 33.39649,-40.55289 1.65747,3.31494 -4.11673,7.67987 -5.56608,10.33701 -6.73095,12.34007 -11.27136,26.52421 -15.90309,39.75774 -1.63576,4.67358 -8.92735,14.31278 -3.97578,14.31278 2.32869,0 23.00079,-37.98731 31.80619,-50.09475 0.28093,-0.38627 13.46029,-13.68967 13.51763,-13.51763 2.46139,7.38418 -8.09573,23.16658 -10.33701,31.01104 -6.21656,21.75795 1.74823,-6.03985 -5.56608,15.90309 -1.57702,4.73104 -11.84447,29.58643 -9.54186,34.19166 2.76468,5.52936 6.53961,-10.49905 9.54186,-15.9031 6.52851,-11.75132 14.4788,-22.33285 22.26433,-33.3965 5.87014,-8.34178 12.86061,-15.24607 19.87887,-22.26433 3.05097,-3.05097 13.85658,-8.7467 9.54186,-8.7467 -3.6051,0 -1.62059,7.08694 -3.18062,10.33701 -12.09,25.18749 -0.45882,-0.5962 -14.31279,29.42073 -7.80576,16.91247 -29.42072,41.14409 -29.42072,60.43176 0,3.10234 1.5629,-6.09953 3.18062,-8.74671 5.79215,-9.47808 11.02336,-19.96259 16.69824,-29.42072 14.78889,-24.64815 34.46222,-47.18469 54.07053,-66.793 5.82209,-5.82209 -9.53512,13.46756 -13.51763,20.67402 -10.89977,19.7234 -20.96142,39.9376 -28.62557,61.22692 -2.84168,7.89354 -6.81162,15.30362 -10.33702,23.05949 -0.4905,1.0791 -2.77565,3.18061 -1.59031,3.18061 0.11441,0 34.38077,-54.12581 41.34805,-62.02207 6.24155,-7.07375 15.24825,-16.69824 14.31279,-16.69824 -3.35267,0 -1.6029,6.58362 -3.18062,9.54185 -7.40041,13.87576 -15.64622,27.09364 -22.26434,41.34805 -0.42275,0.91055 -13.62402,31.80619 -12.72247,31.80619 0.58856,0 29.23108,-37.11942 31.80619,-40.55289"
       id="path10146" />
    <text
       xml:space="preserve"
       style="font-size:21.3333px;font-family:Bulb;-inkscape-font-specification:Bulb;opacity:0.85;fill:none;stroke:#d6c1a1;stroke-width:3.77953;stroke-linecap:round;stroke-linejoin:round;stroke-miterlimit:4;stroke-dasharray:none;stroke-opacity:1"
       x="171.98328"
       y="92.161995"
       id="text12246"><tspan
         sodipodi:role="line"
         id="tspan12244"
         x="171.98328"
         y="92.161995"
         style="font-style:normal;font-variant:normal;font-weight:normal;font-stretch:normal;font-size:21.3333px;font-family:Poppins;-inkscape-font-specification:Poppins;fill:#000000;fill-opacity:1;stroke:none;stroke-width:3.77953;stroke-miterlimit:4;stroke-dasharray:none;stroke-opacity:1">Créativité</tspan></text>
    <text
       xml:space="preserve"
       style="font-size:21.3333px;font-family:Bulb;-inkscape-font-specification:Bulb;display:inline;opacity:0.85;fill:none;stroke:#d6c1a1;stroke-width:3.77953;stroke-linecap:round;stroke-linejoin:round;stroke-miterlimit:4;stroke-dasharray:none;stroke-opacity:1"
       x="321.367"
       y="313.27753"
       id="text12246-7"><tspan
         sodipodi:role="line"
         id="tspan12244-9"
         x="321.367"
         y="313.27753"
         style="font-style:normal;font-variant:normal;font-weight:normal;font-stretch:normal;font-size:21.3333px;font-family:Poppins;-inkscape-font-specification:Poppins;fill:#000000;fill-opacity:1;stroke:none;stroke-width:3.77953;stroke-miterlimit:4;stroke-dasharray:none;stroke-opacity:1">Minutie</tspan></text>
    <text
       xml:space="preserve"
       style="font-size:21.3333px;font-family:Bulb;-inkscape-font-specification:Bulb;display:inline;opacity:0.85;fill:none;stroke:#d6c1a1;stroke-width:3.77953;stroke-linecap:round;stroke-linejoin:round;stroke-miterlimit:4;stroke-dasharray:none;stroke-opacity:1"
       x="20.188644"
       y="313.27753"
       id="text12246-3"><tspan
         sodipodi:role="line"
         id="tspan12244-4"
         x="20.188644"
         y="313.27753"
         style="font-style:normal;font-variant:normal;font-weight:normal;font-stretch:normal;font-size:21.3333px;font-family:Poppins;-inkscape-font-specification:Poppins;fill:#000000;fill-opacity:1;stroke:none;stroke-width:3.77953;stroke-miterlimit:4;stroke-dasharray:none;stroke-opacity:1">Empathie</tspan></text>
    <text
       xml:space="preserve"
       style="font-size:21.3333px;font-family:Bulb;-inkscape-font-specification:Bulb;display:inline;opacity:0.85;fill:none;stroke:#d6c1a1;stroke-width:3.77953;stroke-linecap:round;stroke-linejoin:round;stroke-miterlimit:4;stroke-dasharray:none;stroke-opacity:1"
       x="89.976997"
       y="188.27753"
       id="text12246-0"><tspan
         sodipodi:role="line"
         id="tspan12244-49"
         x="89.976997"
         y="188.27753"
         style="font-style:normal;font-variant:normal;font-weight:normal;font-stretch:normal;font-size:21.3333px;font-family:Poppins;-inkscape-font-specification:Poppins;fill:#000000;fill-opacity:1;stroke:none;stroke-width:3.77953;stroke-miterlimit:4;stroke-dasharray:none;stroke-opacity:1">Design</tspan></text>
    <text
       xml:space="preserve"
       style="font-size:21.3333px;font-family:Bulb;-inkscape-font-specification:Bulb;display:inline;opacity:0.85;fill:none;stroke:#d6c1a1;stroke-width:3.77953;stroke-linecap:round;stroke-linejoin:round;stroke-miterlimit:4;stroke-dasharray:none;stroke-opacity:1"
       x="250.02061"
       y="186.9122"
       id="text12246-5"><tspan
         sodipodi:role="line"
         id="tspan12244-3"
         x="250.02061"
         y="186.9122"
         style="font-style:normal;font-variant:normal;font-weight:normal;font-stretch:normal;font-size:21.3333px;font-family:Poppins;-inkscape-font-specification:Poppins;fill:#000000;fill-opacity:1;stroke:none;stroke-width:3.77953;stroke-miterlimit:4;stroke-dasharray:none;stroke-opacity:1">Innovant</tspan></text>
    <text
       xml:space="preserve"
       style="font-size:21.3333px;font-family:Bulb;-inkscape-font-specification:Bulb;display:inline;opacity:0.85;fill:none;stroke:#d6c1a1;stroke-width:3.77953;stroke-linecap:round;stroke-linejoin:round;stroke-miterlimit:4;stroke-dasharray:none;stroke-opacity:1"
       x="159.75368"
       y="337.19278"
       id="text12246-74"><tspan
         sodipodi:role="line"
         id="tspan12244-8"
         x="159.75368"
         y="337.19278"
         style="font-style:normal;font-variant:normal;font-weight:normal;font-stretch:normal;font-size:21.3333px;font-family:Poppins;-inkscape-font-specification:Poppins;fill:#000000;fill-opacity:1;stroke:none;stroke-width:3.77953;stroke-miterlimit:4;stroke-dasharray:none;stroke-opacity:1">Accessible</tspan></text>
  </g>
  <g
     inkscape:groupmode="layer"
     id="layer3"
     inkscape:label="gribouillage"
     transform="translate(14.084144,4.8468809)" />
</svg>
