<?xml version="1.0" encoding="UTF-8" standalone="no"?>
<!-- Created with Inkscape (http://www.inkscape.org/) -->

<svg
   width="142.73315mm"
   height="109.2931mm"
   viewBox="0 0 142.73315 109.2931"
   version="1.1"
   id="svg5"
   xmlns="http://www.w3.org/2000/svg"
   xmlns:svg="http://www.w3.org/2000/svg">
  <defs
     id="defs2" />
  <g
     id="layer1"
     transform="translate(-38.288645,-61.448392)">
    <g
       id="g8837">
      <path
         style="fill:#a01e39;fill-opacity:1;stroke-width:1.9;stroke-linecap:round;stroke-linejoin:round"
         d="M 85.277227,142.98638 C 105.16043,158.51659 174.97518,93.691453 180.0225,76.34623 184.34341,61.497319 173.84978,59.386168 163.91575,62.962772 142.52235,70.665159 65.394021,127.45618 85.277227,142.98638 Z"
         id="path857" />
      <path
         style="fill:#808080;fill-opacity:1;stroke-width:1.9;stroke-linecap:round;stroke-linejoin:round"
         d="M 83.485525,130.1276 65.20682,144.47064 c -1.893131,1.48552 8.03824,16.71826 11.054916,14.53225 l 18.998549,-13.76715 c -0.699696,-6.52207 -6.556503,-13.75512 -11.77476,-15.10814 z"
         id="path859" />
      <path
         style="fill:#2d2d2d;fill-opacity:1;stroke-width:1.9;stroke-linecap:round;stroke-linejoin:round"
         d="m 75.047731,161.19003 c -5.561071,10.52659 -22.584812,13.25114 -34.878447,3.60576 -2.751082,-2.32355 -2.440218,-4.37465 0.646343,-5.41629 3.726075,-1.28063 7.91342,-4.19337 9.36596,-6.1323 3.456086,-5.2048 7.994555,-8.81151 13.498936,-8.84789 10.266019,-0.31768 15.620557,9.02425 11.367208,16.79072 z"
         id="path3809" />
    </g>
  </g>
</svg>
