<?xml version="1.0" encoding="UTF-8" standalone="no"?>
<!-- Created with Inkscape (http://www.inkscape.org/) -->

<svg
   width="4.5232458mm"
   height="4.5550599mm"
   viewBox="0 0 4.5232458 4.5550599"
   version="1.1"
   id="svg5"
   xmlns="http://www.w3.org/2000/svg"
   xmlns:svg="http://www.w3.org/2000/svg">
  <defs
     id="defs2" />
  <g
     id="layer2"
     transform="translate(-102.81538,-146.379)">
    <g
       id="g7977">
      <path
         style="fill:none;stroke:#eac266;stroke-width:0.4;stroke-linecap:round;stroke-linejoin:round;stroke-miterlimit:4;stroke-dasharray:none;stroke-opacity:1"
         d="m 103.01538,150.73402 h 3.46011"
         id="path870" />
      <path
         style="fill:none;stroke:#eac266;stroke-width:0.4;stroke-linecap:round;stroke-linejoin:round;stroke-miterlimit:4;stroke-dasharray:none;stroke-opacity:1"
         d="m 103.10473,148.50038 h 3.25705"
         id="path5189" />
      <path
         style="fill:none;stroke:#eac266;stroke-width:0.4;stroke-linecap:round;stroke-linejoin:round;stroke-miterlimit:4;stroke-dasharray:none;stroke-opacity:1"
         d="m 106.36178,148.50038 c 0,0.95257 -0.3734,2.23368 -1.61633,2.23368 -1.38811,0 -1.6406,-1.30897 -1.6406,-2.23364"
         id="path5191" />
      <path
         style="fill:none;stroke:#eac266;stroke-width:0.4;stroke-linecap:round;stroke-linejoin:round;stroke-miterlimit:4;stroke-dasharray:none;stroke-opacity:1"
         d="m 106.39427,148.6872 c 1.36076,0.0921 0.58519,1.49331 -0.1624,0.9828"
         id="path6271" />
      <path
         style="fill:none;stroke:#eac266;stroke-width:0.4;stroke-linecap:round;stroke-linejoin:round;stroke-miterlimit:4;stroke-dasharray:none;stroke-opacity:1"
         d="m 103.86437,146.57916 c 0.13569,0.0774 0.22691,0.25135 0.19546,0.37218 -0.068,0.26137 -0.21943,0.25524 -0.28095,0.50126 -0.0447,0.17883 0.066,0.27825 0.18682,0.38987"
         id="path6439" />
      <path
         style="fill:none;stroke:#eac266;stroke-width:0.4;stroke-linecap:round;stroke-linejoin:round;stroke-miterlimit:4;stroke-dasharray:none;stroke-opacity:1"
         d="m 104.70995,146.579 c 0.13569,0.0774 0.22691,0.25135 0.19546,0.37218 -0.068,0.26137 -0.21943,0.25524 -0.28095,0.50126 -0.0447,0.17883 0.066,0.27825 0.18682,0.38987"
         id="path6439-3" />
      <path
         style="fill:none;stroke:#eac266;stroke-width:0.4;stroke-linecap:round;stroke-linejoin:round;stroke-miterlimit:4;stroke-dasharray:none;stroke-opacity:1"
         d="m 105.50254,146.579 c 0.13569,0.0774 0.22691,0.25135 0.19546,0.37218 -0.068,0.26137 -0.21943,0.25524 -0.28095,0.50126 -0.0447,0.17883 0.066,0.27825 0.18682,0.38987"
         id="path6439-3-7" />
    </g>
  </g>
</svg>
