<?xml version="1.0" encoding="UTF-8" standalone="no"?>
<svg
   width="300"
   height="180"
   viewBox="0 0 300 180"
   fill="none"
   version="1.1"
   id="svg4086"
   xmlns="http://www.w3.org/2000/svg"
   xmlns:svg="http://www.w3.org/2000/svg">
  <defs
     id="defs4090" />
  <g
     id="g10827">
    <g
       id="g11052"
       transform="rotate(20,157.57302,90.000008)">
      <rect
         style="fill:#2f2c46;fill-opacity:1;stroke:none;stroke-width:35.0148;stroke-linejoin:round"
         id="rect10681"
         width="230.6555"
         height="325.07095"
         x="-80.65551"
         y="-72.535469" />
      <rect
         style="fill:#b94f25;fill-opacity:1;stroke:none;stroke-width:36.1462;stroke-linejoin:round"
         id="rect10681-6"
         width="245.80156"
         height="325.07095"
         x="150"
         y="-72.535469" />
    </g>
  </g>
  <g
     style="fill:none"
     id="g10094"
     transform="matrix(0.41749503,0,0,0.41749503,45,17.147117)">
    <path
       d="m 156.242,88.043 24.317,48.926 22.656,-48.926 h 57.226 l -76.66,155.762 c -1.692,3.19 -4.655,4.785 -8.886,4.785 -4.167,0 -7.064,-1.595 -8.692,-4.785 L 85.4414,88.043 Z"
       fill="#b94f25"
       id="path10028" />
    <path
       d="m 331.047,247.809 c -29.232,0 -48.633,-3.614 -58.203,-10.84 v -44.727 c 0.26,0.065 1.204,0.358 2.832,0.879 1.692,0.521 3.808,1.172 6.347,1.953 5.925,1.823 12.142,3.548 18.653,5.176 6.575,1.562 11.849,2.344 15.82,2.344 6.511,0 9.766,-1.986 9.766,-5.957 0,-3.06 -2.8,-6.315 -8.399,-9.766 -2.539,-1.562 -5.436,-3.19 -8.691,-4.883 -3.19,-1.692 -6.445,-3.58 -9.766,-5.664 -8.138,-5.013 -14.681,-10.872 -19.629,-17.578 -4.882,-6.706 -7.324,-15.169 -7.324,-25.391 0,-22.33 11.784,-37.3368 35.352,-45.0191 9.57,-3.125 20.605,-4.6875 33.105,-4.6875 12.565,0 25.684,1.4323 39.356,4.2969 2.799,0.5859 4.655,1.0091 5.566,1.2695 v 44.8242 c -17.708,-3.776 -30.436,-5.664 -38.184,-5.664 -2.994,0 -5.24,0.521 -6.738,1.563 -1.497,1.041 -2.246,2.213 -2.246,3.515 0,1.302 0.651,2.669 1.953,4.102 1.302,1.367 3.548,2.767 6.738,4.199 3.191,1.367 6.902,3.06 11.133,5.078 4.297,1.953 8.301,4.069 12.012,6.348 16.667,10.221 25,24.186 25,41.894 0,16.797 -5.664,29.785 -16.992,38.965 -11.459,9.115 -27.279,13.704 -47.461,13.77 z"
       fill="#2f2c46"
       id="path10030" />
    <path
       d="m 145.242,82.043 24.317,48.926 22.656,-48.926 h 57.226 l -76.66,155.762 c -1.692,3.19 -4.655,4.785 -8.886,4.785 -4.167,0 -7.064,-1.595 -8.692,-4.785 L 74.4414,82.043 Z m 174.805,159.766 c -29.232,0 -48.633,-3.614 -58.203,-10.84 v -44.727 c 0.26,0.065 1.204,0.358 2.832,0.879 1.692,0.521 3.808,1.172 6.347,1.953 5.925,1.823 12.142,3.548 18.653,5.176 6.575,1.562 11.849,2.344 15.82,2.344 6.511,0 9.766,-1.986 9.766,-5.957 0,-3.06 -2.8,-6.315 -8.399,-9.766 -2.539,-1.562 -5.436,-3.19 -8.691,-4.883 -3.19,-1.692 -6.445,-3.58 -9.766,-5.664 -8.138,-5.013 -14.681,-10.872 -19.629,-17.578 -4.882,-6.706 -7.324,-15.169 -7.324,-25.391 0,-22.33 11.784,-37.3368 35.352,-45.0191 9.57,-3.125 20.605,-4.6875 33.105,-4.6875 12.565,0 25.684,1.4323 39.356,4.2969 2.799,0.5859 4.655,1.0091 5.566,1.2695 v 44.8242 c -17.708,-3.776 -30.436,-5.664 -38.184,-5.664 -2.994,0 -5.24,0.521 -6.738,1.563 -1.497,1.041 -2.246,2.213 -2.246,3.515 0,1.302 0.651,2.669 1.953,4.102 1.302,1.367 3.548,2.767 6.738,4.199 3.191,1.367 6.902,3.06 11.133,5.078 4.297,1.953 8.301,4.069 12.012,6.348 16.667,10.221 25,24.186 25,41.894 0,16.797 -5.664,29.785 -16.992,38.965 -11.459,9.115 -27.279,13.704 -47.461,13.77 z"
       fill="#ffffff"
       id="path10032" />
    <rect
       x="341"
       y="46"
       width="50"
       height="12"
       rx="6"
       fill="#2f2c46"
       id="rect10034" />
    <rect
       x="143"
       y="46"
       width="80"
       height="12"
       rx="6"
       fill="#b94f25"
       id="rect10036" />
    <rect
       x="48"
       y="120"
       width="32"
       height="12"
       rx="6"
       fill="#b94f25"
       id="rect10038" />
    <rect
       x="9"
       y="77"
       width="55"
       height="12"
       rx="6"
       fill="#b94f25"
       id="rect10040" />
    <rect
       y="163"
       width="72"
       height="12"
       rx="6"
       fill="#b94f25"
       id="rect10042"
       x="0" />
    <rect
       x="52"
       y="206"
       width="69"
       height="12"
       rx="6"
       fill="#b94f25"
       id="rect10044" />
    <rect
       x="90"
       y="248"
       width="53"
       height="12"
       rx="6"
       fill="#b94f25"
       id="rect10046" />
    <rect
       x="14"
       y="248"
       width="50"
       height="12"
       rx="6"
       fill="#b94f25"
       id="rect10048" />
    <rect
       x="143"
       y="291"
       width="48"
       height="12"
       rx="6"
       fill="#b94f25"
       id="rect10050" />
    <rect
       x="409"
       y="77"
       width="34"
       height="12"
       rx="6"
       fill="#2f2c46"
       id="rect10052" />
    <rect
       x="429"
       y="120"
       width="68"
       height="12"
       rx="6"
       fill="#2f2c46"
       id="rect10054" />
    <rect
       x="398"
       y="163"
       width="51"
       height="12"
       rx="6"
       fill="#2f2c46"
       id="rect10056" />
    <rect
       x="270"
       y="291"
       width="73"
       height="12"
       rx="6"
       fill="#2f2c46"
       id="rect10058" />
    <rect
       x="418"
       y="206"
       width="53"
       height="12"
       rx="6"
       fill="#2f2c46"
       id="rect10060" />
    <rect
       x="376"
       y="248"
       width="73"
       height="12"
       rx="6"
       fill="#2f2c46"
       id="rect10062" />
    <rect
       x="227"
       y="248"
       width="52"
       height="12"
       rx="6"
       fill="#2f2c46"
       id="rect10064" />
    <rect
       x="480"
       y="163"
       width="23"
       height="12"
       rx="6"
       fill="#2f2c46"
       id="rect10066" />
  </g>
</svg>
