<svg width="344" height="90" viewBox="0 0 344 90" fill="none" xmlns="http://www.w3.org/2000/svg">
<path d="M34.8655 89.2166C28.3255 89.2166 22.1511 87.9573 16.3422 85.4388C10.574 82.9203 5.53703 79.2441 1.23119 74.4102C0.743733 73.8415 0.5 73.2931 0.5 72.765C0.5 72.1557 0.804658 71.5464 1.41397 70.937L12.1989 60.7005C12.727 60.1725 13.2753 59.9084 13.844 59.9084C14.494 59.9084 15.083 60.2131 15.6111 60.8224C18.2108 63.5034 21.1152 65.5344 24.3243 66.9156C27.5334 68.2561 30.8643 68.9263 34.3171 68.9263C37.7699 68.9263 40.3493 68.3373 42.0554 67.1593C43.7615 65.9813 44.6146 64.3767 44.6146 62.3457C44.6146 60.9646 44.2286 59.7662 43.4568 58.7507C42.7257 57.7352 41.2836 56.7197 39.1307 55.7041C37.0184 54.6886 33.9109 53.5715 29.8082 52.3529C23.0244 50.3624 16.9719 47.194 11.6505 42.8475C6.36975 38.4605 3.72939 32.5501 3.72939 25.1164C3.72939 20.6887 4.84647 16.6063 7.08063 12.8691C9.31479 9.13199 12.727 6.14634 17.3172 3.91217C21.9073 1.63739 27.5537 0.5 34.2562 0.5C39.9025 0.5 45.3051 1.51552 50.464 3.54657C55.6229 5.57763 60.2131 8.31955 64.2346 11.7723C64.8439 12.3004 65.1486 12.8894 65.1486 13.5394C65.1486 14.1081 64.9048 14.6768 64.4174 15.2455L54.5464 26.335C54.0183 26.985 53.4294 27.3099 52.7794 27.3099C52.2513 27.3099 51.7029 27.0865 51.1342 26.6397C48.8595 24.8524 46.28 23.3494 43.3959 22.1307C40.5118 20.8715 37.6683 20.2419 34.8655 20.2419C29.1379 20.2419 26.2741 21.9276 26.2741 25.2992C26.2741 26.7209 26.7413 27.9193 27.6755 28.8942C28.6098 29.8691 29.8488 30.7018 31.3924 31.3924C32.9766 32.0829 35.3936 32.9969 38.6432 34.1343C39.0901 34.2562 39.7603 34.4796 40.654 34.8045C46.4222 36.8356 51.1952 39.0088 54.973 41.3242C58.7507 43.6397 61.6755 46.4831 63.7471 49.8547C65.8188 53.1856 66.8546 57.2071 66.8546 61.9192C66.8546 67.3624 65.5344 72.1557 62.8941 76.299C60.2537 80.4018 56.5166 83.5905 51.6826 85.8653C46.8487 88.0995 41.243 89.2166 34.8655 89.2166Z" fill="#121213"/>
<path d="M121.937 85.8043C121.449 87.1041 120.515 87.7541 119.134 87.7541H104.571C103.19 87.7541 102.256 87.1041 101.768 85.8043L70.9367 4.94788C70.8148 4.58229 70.7539 4.23702 70.7539 3.91205C70.7539 3.34335 70.9367 2.91682 71.3023 2.63248C71.6679 2.3075 72.1756 2.14502 72.8256 2.14502H91.3488C92.6893 2.14502 93.6033 2.79497 94.0908 4.09485L112.187 56.8617L128.822 4.15576C129.228 2.81526 130.142 2.14502 131.564 2.14502H149.721C150.412 2.14502 150.94 2.3075 151.306 2.63248C151.712 2.95744 151.915 3.40427 151.915 3.97296C151.915 4.25731 151.854 4.58229 151.732 4.94788L142.471 32.8546L150.331 56.8008L168.123 4.15576C168.57 2.81526 169.484 2.14502 170.865 2.14502H189.327C189.977 2.14502 190.485 2.3075 190.85 2.63248C191.257 2.91682 191.46 3.34335 191.46 3.91205C191.46 4.23702 191.399 4.58229 191.277 4.94788L160.141 85.8043C159.653 87.1041 158.719 87.7541 157.338 87.7541H143.019C141.638 87.7541 140.704 87.1041 140.216 85.8043L131.198 61.3097L121.937 85.8043Z" fill="#121213"/>
<path d="M266.527 84.9515C266.649 85.3171 266.71 85.6624 266.71 85.9873C266.71 86.556 266.527 87.0029 266.162 87.3279C265.796 87.6122 265.289 87.7544 264.639 87.7544H247.09C245.709 87.7544 244.795 87.0841 244.348 85.7436L240.449 74.3494H209.739L205.839 85.7436C205.433 87.0841 204.519 87.7544 203.098 87.7544H185.61C184.96 87.7544 184.432 87.6122 184.026 87.3279C183.66 87.0029 183.478 86.556 183.478 85.9873C183.478 85.6624 183.538 85.3171 183.66 84.9515L214.857 3.97324C215.345 2.67336 216.279 2.02344 217.66 2.02344H232.71C234.091 2.02344 235.026 2.67336 235.513 3.97324L266.527 84.9515ZM234.295 56.0699L226.13 32.0628L225.033 28.1631L224.119 32.0628L215.954 56.0699H234.295Z" fill="#121213"/>
<path d="M298.761 85.3168C298.761 86.9417 297.948 87.7541 296.323 87.7541H279.262C277.638 87.7541 276.825 86.9417 276.825 85.3168V4.58228C276.825 2.95743 277.638 2.14502 279.262 2.14502H312.227C318.401 2.14502 323.804 3.38395 328.434 5.86185C333.106 8.33973 336.701 11.7722 339.219 16.1593C341.778 20.5058 343.058 25.4209 343.058 30.9048C343.058 36.8355 341.839 42.0553 339.402 46.5642C336.965 51.0732 333.431 54.5869 328.8 57.1054C324.21 59.5833 318.767 60.8223 312.47 60.8223H298.761V85.3168ZM310.703 41.0194C312.653 41.0194 314.42 40.5929 316.004 39.7399C317.589 38.8869 318.827 37.7088 319.721 36.2058C320.655 34.6622 321.123 32.9562 321.123 31.0876C321.123 29.3003 320.655 27.716 319.721 26.3349C318.827 24.9538 317.589 23.8773 316.004 23.1055C314.461 22.3337 312.714 21.9478 310.764 21.9478H298.761V41.0194H310.703Z" fill="#121213"/>
</svg>
