<?xml version="1.0" encoding="UTF-8" standalone="no"?>
<!-- Created with Inkscape (http://www.inkscape.org/) -->

<svg
   width="17.077408mm"
   height="14.870543mm"
   viewBox="0 0 17.077408 14.870543"
   version="1.1"
   id="svg5511"
   xmlns="http://www.w3.org/2000/svg"
   xmlns:svg="http://www.w3.org/2000/svg">
  <defs
     id="defs5508" />
  <g
     id="layer1"
     transform="translate(-50.709757,-94.865986)">
    <g
       id="g7107"
       transform="translate(-0.72591563)">
      <g
         id="g5482"
         transform="matrix(0.52550507,0,0,0.52550507,-14.136265,31.353307)"
         style="display:inline">
        <circle
           style="fill:#ffb132;fill-opacity:1;stroke-width:3.49303;stroke-linecap:round"
           id="path885"
           cx="135.17171"
           cy="131.25308"
           r="6.8925848" />
        <path
           style="fill:#ffb132;fill-opacity:1;stroke-width:6.33827;stroke-linecap:round"
           id="path1197"
           transform="matrix(0.10565069,0,0,0.10565069,105.75609,74.63405)"
           d="m 278.42328,437.53817 c 0.50594,0 8.17942,14.16719 8.4324,14.60535 0.25297,0.43816 8.68537,14.16718 8.43239,14.60534 -0.25297,0.43816 -16.35885,0 -16.86479,0 -0.50595,0 -16.61183,0.43816 -16.8648,0 -0.25297,-0.43816 8.17943,-14.16718 8.4324,-14.60534 0.25297,-0.43816 7.92646,-14.60535 8.4324,-14.60535 z m 0,196.73894 c 0.50594,0 8.17942,-14.16719 8.4324,-14.60535 0.25297,-0.43816 8.68537,-14.16718 8.43239,-14.60534 -0.25297,-0.43816 -16.35885,0 -16.86479,0 -0.50595,0 -16.61183,-0.43816 -16.8648,0 -0.25297,0.43816 8.17943,14.16718 8.4324,14.60534 0.25297,0.43816 7.92646,14.60535 8.4324,14.60535 z" />
        <path
           style="display:inline;fill:#ffb132;fill-opacity:1;stroke-width:6.33827;stroke-linecap:round"
           id="path1197-2"
           transform="matrix(0.09149619,-0.05282534,0.05282534,0.09149619,81.387522,96.996275)"
           d="m 278.42328,437.53817 c 0.50594,0 8.17942,14.16719 8.4324,14.60535 0.25297,0.43816 8.68537,14.16718 8.43239,14.60534 -0.25297,0.43816 -16.35885,0 -16.86479,0 -0.50595,0 -16.61183,0.43816 -16.8648,0 -0.25297,-0.43816 8.17943,-14.16718 8.4324,-14.60534 0.25297,-0.43816 7.92646,-14.60535 8.4324,-14.60535 z m 0,196.73894 c 0.50594,0 8.17942,-14.16719 8.4324,-14.60535 0.25297,-0.43816 8.68537,-14.16718 8.43239,-14.60534 -0.25297,-0.43816 -16.35885,0 -16.86479,0 -0.50595,0 -16.61183,-0.43816 -16.8648,0 -0.25297,0.43816 8.17943,14.16718 8.4324,14.60534 0.25297,0.43816 7.92646,14.60535 8.4324,14.60535 z" />
        <path
           style="display:inline;fill:#ffb132;fill-opacity:1;stroke-width:6.33827;stroke-linecap:round"
           id="path1197-2-9"
           transform="matrix(0.05282535,-0.09149619,0.09149619,0.05282535,71.430382,128.41822)"
           d="m 278.42328,437.53817 c 0.50594,0 8.17942,14.16719 8.4324,14.60535 0.25297,0.43816 8.68537,14.16718 8.43239,14.60534 -0.25297,0.43816 -16.35885,0 -16.86479,0 -0.50595,0 -16.61183,0.43816 -16.8648,0 -0.25297,-0.43816 8.17943,-14.16718 8.4324,-14.60534 0.25297,-0.43816 7.92646,-14.60535 8.4324,-14.60535 z m 0,196.73894 c 0.50594,0 8.17942,-14.16719 8.4324,-14.60535 0.25297,-0.43816 8.68537,-14.16718 8.43239,-14.60534 -0.25297,-0.43816 -16.35885,0 -16.86479,0 -0.50595,0 -16.61183,-0.43816 -16.8648,0 -0.25297,0.43816 8.17943,14.16718 8.4324,14.60534 0.25297,0.43816 7.92646,14.60535 8.4324,14.60535 z" />
        <path
           style="display:inline;fill:#ffb132;fill-opacity:1;stroke-width:6.33827;stroke-linecap:round"
           id="path1197-1"
           transform="matrix(0,0.10565069,-0.10565069,0,191.7907,101.83745)"
           d="m 278.42328,437.53817 c 0.50594,0 8.17942,14.16719 8.4324,14.60535 0.25297,0.43816 8.68537,14.16718 8.43239,14.60534 -0.25297,0.43816 -16.35885,0 -16.86479,0 -0.50595,0 -16.61183,0.43816 -16.8648,0 -0.25297,-0.43816 8.17943,-14.16718 8.4324,-14.60534 0.25297,-0.43816 7.92646,-14.60535 8.4324,-14.60535 z m 0,196.73894 c 0.50594,0 8.17942,-14.16719 8.4324,-14.60535 0.25297,-0.43816 8.68537,-14.16718 8.43239,-14.60534 -0.25297,-0.43816 -16.35885,0 -16.86479,0 -0.50595,0 -16.61183,-0.43816 -16.8648,0 -0.25297,0.43816 8.17943,14.16718 8.4324,14.60534 0.25297,0.43816 7.92646,14.60535 8.4324,14.60535 z" />
        <path
           style="display:inline;fill:#ffb132;fill-opacity:1;stroke-width:6.33827;stroke-linecap:round"
           id="path1197-1-1"
           transform="matrix(0.09149619,0.05282534,-0.05282534,0.09149619,138.00653,67.511754)"
           d="m 278.42328,437.53817 c 0.50594,0 8.17942,14.16719 8.4324,14.60535 0.25297,0.43816 8.68537,14.16718 8.43239,14.60534 -0.25297,0.43816 -16.35885,0 -16.86479,0 -0.50595,0 -16.61183,0.43816 -16.8648,0 -0.25297,-0.43816 8.17943,-14.16718 8.4324,-14.60534 0.25297,-0.43816 7.92646,-14.60535 8.4324,-14.60535 z m 0,196.73894 c 0.50594,0 8.17942,-14.16719 8.4324,-14.60535 0.25297,-0.43816 8.68537,-14.16718 8.43239,-14.60534 -0.25297,-0.43816 -16.35885,0 -16.86479,0 -0.50595,0 -16.61183,-0.43816 -16.8648,0 -0.25297,0.43816 8.17943,14.16718 8.4324,14.60534 0.25297,0.43816 7.92646,14.60535 8.4324,14.60535 z" />
        <path
           style="display:inline;fill:#ffb132;fill-opacity:1;stroke-width:6.33827;stroke-linecap:round"
           id="path1197-1-1-8"
           transform="matrix(0.05282535,0.09149619,-0.09149619,0.05282535,169.49739,77.468882)"
           d="m 278.42328,437.53817 c 0.50594,0 8.17942,14.16719 8.4324,14.60535 0.25297,0.43816 8.68537,14.16718 8.43239,14.60534 -0.25297,0.43816 -16.35885,0 -16.86479,0 -0.50595,0 -16.61183,0.43816 -16.8648,0 -0.25297,-0.43816 8.17943,-14.16718 8.4324,-14.60534 0.25297,-0.43816 7.92646,-14.60535 8.4324,-14.60535 z m 0,196.73894 c 0.50594,0 8.17942,-14.16719 8.4324,-14.60535 0.25297,-0.43816 8.68537,-14.16718 8.43239,-14.60534 -0.25297,-0.43816 -16.35885,0 -16.86479,0 -0.50595,0 -16.61183,-0.43816 -16.8648,0 -0.25297,0.43816 8.17943,14.16718 8.4324,14.60534 0.25297,0.43816 7.92646,14.60535 8.4324,14.60535 z" />
      </g>
      <path
         id="path898-4"
         style="display:inline;fill:#d2d7da;fill-opacity:1;stroke-width:1.4318;stroke-linecap:round"
         d="m 61.680717,98.494243 a 2.8905367,2.911645 0 0 1 2.890534,2.911507 2.8905367,2.911645 0 0 1 -0.0039,0.1066 c 0.359088,-0.17761 0.760926,-0.27707 1.185103,-0.27707 1.524656,0 2.760627,1.28405 2.760627,2.8682 0,1.02622 -0.609069,2.3032 -1.559956,2.5891 -0.555229,0.16698 -1.037873,0.11551 -1.576872,0.1201 -0.03247,3.5e-4 -0.06455,7e-5 -0.09642,-6.6e-4 l -9.675038,-0.007 c -0.0125,1.1e-4 -0.02501,3.4e-4 -0.03757,3.4e-4 -0.468732,0 -1.072289,0.0394 -1.422605,-0.15225 -0.63375,-0.34667 -1.080224,-1.12062 -1.080224,-2.21458 0,-1.6263 1.160854,-2.94466 2.592821,-2.94466 0.224226,0 0.441702,0.0322 0.64922,0.093 a 2.5874093,2.5657574 0 0 1 2.311684,-1.41381 2.5874093,2.5657574 0 0 1 0.427286,0.0365 2.8905367,2.911645 0 0 1 2.635454,-1.715923 z" />
      <path
         id="path898"
         style="display:inline;fill:#b3bdbe;fill-opacity:1;stroke-width:1.4318;stroke-linecap:round"
         d="m 58.403578,101.41407 a 2.8905367,2.911645 0 0 0 -2.890537,2.9115 2.8905367,2.911645 0 0 0 0.0041,0.1066 c -0.359091,-0.17762 -0.760926,-0.27708 -1.185107,-0.27708 -1.524649,0 -2.760625,1.28406 -2.760625,2.8682 0,1.02622 0.60907,2.30321 1.559956,2.5891 0.55523,0.16699 1.037873,0.11552 1.576873,0.1201 0.03245,3.5e-4 0.06458,8e-5 0.09641,-6.4e-4 l 9.675044,-0.007 c 0.01252,1.1e-4 0.02501,3.4e-4 0.03755,3.4e-4 0.468734,0 1.072292,0.0394 1.422601,-0.15224 0.633751,-0.34669 1.08023,-1.12064 1.08023,-2.2146 0,-1.62629 -1.160855,-2.94465 -2.592821,-2.94465 -0.224228,0 -0.441706,0.0322 -0.649222,0.093 a 2.5874093,2.5657574 0 0 0 -2.311685,-1.41381 2.5874093,2.5657574 0 0 0 -0.427288,0.0365 2.8905367,2.911645 0 0 0 -2.63545,-1.71592 z" />
    </g>
  </g>
</svg>
