<?xml version="1.0" encoding="UTF-8" standalone="no"?>
<svg
   width="139"
   height="115"
   viewBox="0 0 139 115"
   fill="none"
   version="1.1"
   id="svg976"
   xmlns="http://www.w3.org/2000/svg"
   xmlns:svg="http://www.w3.org/2000/svg">
  <g
     clip-path="url(#clip0_126_211)"
     id="g969">
    <path
       d="M56.6823 82.4123C74.8084 82.4123 89.5026 67.7349 89.5026 49.6294C89.5026 31.524 74.8084 16.8466 56.6823 16.8466C38.5561 16.8466 23.862 31.524 23.862 49.6294C23.862 67.7349 38.5561 82.4123 56.6823 82.4123Z"
       fill="#FFB132"
       id="path951" />
    <path
       d="M56.6823 0.198486C56.9368 0.198486 60.7972 7.31752 60.9245 7.53769C61.0517 7.75787 65.2938 14.6567 65.1666 14.8769C65.0393 15.0971 56.9368 14.8769 56.6823 14.8769C56.4278 14.8769 48.3253 15.0971 48.1981 14.8769C48.0708 14.6567 52.3129 7.75787 52.4402 7.53769C52.5675 7.31752 56.4278 0.198486 56.6823 0.198486ZM56.6823 99.0601C56.9368 99.0601 60.7972 91.941 60.9245 91.7209C61.0517 91.5007 65.2938 84.6018 65.1666 84.3817C65.0393 84.1615 56.9368 84.3817 56.6823 84.3817C56.4278 84.3817 48.3253 84.1615 48.1981 84.3817C48.0708 84.6018 52.3129 91.5007 52.4402 91.7209C52.5675 91.941 56.4278 99.0601 56.6823 99.0601Z"
       fill="#FFB132"
       id="path953" />
    <path
       d="M31.9386 7.14876C32.1591 7.02164 39.0658 11.2589 39.2862 11.386C39.5067 11.5132 46.6338 15.3691 46.6338 15.6233C46.6338 15.8776 39.5067 19.7335 39.2862 19.8606C39.0658 19.9878 32.1591 24.225 31.9386 24.0979C31.7182 23.9708 31.9386 15.8776 31.9386 15.6233C31.9386 15.3691 31.7182 7.27587 31.9386 7.14876ZM81.4259 92.7654C81.6463 92.6383 81.4259 84.545 81.4259 84.2908C81.4259 84.0366 81.6463 75.9433 81.4259 75.8162C81.2054 75.6891 74.2987 79.9264 74.0783 80.0535C73.8578 80.1806 66.7307 84.0366 66.7307 84.2908C66.7307 84.545 73.8579 88.401 74.0783 88.5281C74.2987 88.6552 81.2054 92.8925 81.4259 92.7654Z"
       fill="#FFB132"
       id="path955" />
    <path
       d="M13.825 24.9139C13.9523 24.6937 22.0548 24.9139 22.3093 24.9139C22.5638 24.9139 30.6663 24.6937 30.7935 24.9139C30.9208 25.134 26.6787 32.0329 26.5514 32.2531C26.4241 32.4732 22.5638 39.5923 22.3093 39.5923C22.0548 39.5923 18.1944 32.4732 18.0671 32.2531C17.9399 32.0329 13.6978 25.134 13.825 24.9139ZM99.5394 74.3446C99.6667 74.1245 95.4245 67.2256 95.2973 67.0054C95.17 66.7853 91.3097 59.6662 91.0551 59.6662C90.8006 59.6662 86.9403 66.7853 86.813 67.0054C86.6858 67.2256 82.4436 74.1245 82.5709 74.3446C82.6982 74.5648 90.8006 74.3446 91.0552 74.3446C91.3097 74.3446 99.4122 74.5648 99.5394 74.3446Z"
       fill="#FFB132"
       id="path957" />
    <path
       d="M106.169 49.6292C106.169 49.8835 99.0423 53.7394 98.8219 53.8665C98.6014 53.9937 91.6947 58.2309 91.4743 58.1038C91.2539 57.9767 91.4743 49.8835 91.4743 49.6292C91.4743 49.375 91.2539 41.2818 91.4743 41.1547C91.6947 41.0275 98.6014 45.2648 98.8219 45.392C99.0423 45.5191 106.169 49.375 106.169 49.6292ZM7.19501 49.6292C7.19501 49.8835 14.3222 53.7394 14.5426 53.8665C14.763 53.9937 21.6698 58.2309 21.8902 58.1038C22.1106 57.9767 21.8902 49.8835 21.8902 49.6292C21.8902 49.375 22.1106 41.2818 21.8902 41.1547C21.6698 41.0275 14.763 45.2648 14.5426 45.392C14.3222 45.5191 7.19501 49.375 7.19501 49.6292Z"
       fill="#FFB132"
       id="path959" />
    <path
       d="M81.4259 6.82097C81.6463 6.94809 81.4259 15.0413 81.4259 15.2956C81.4259 15.5498 81.6463 23.643 81.4259 23.7701C81.2055 23.8973 74.2987 19.66 74.0783 19.5328C73.8579 19.4057 66.7307 15.5498 66.7307 15.2956C66.7307 15.0413 73.8579 11.1854 74.0783 11.0583C74.2987 10.9311 81.2055 6.69385 81.4259 6.82097ZM31.9387 92.4376C32.1591 92.5647 39.0658 88.3274 39.2863 88.2003C39.5067 88.0732 46.6338 84.2173 46.6338 83.963C46.6338 83.7088 39.5067 79.8528 39.2862 79.7257C39.0658 79.5986 32.1591 75.3613 31.9387 75.4884C31.7182 75.6156 31.9387 83.7088 31.9387 83.963C31.9387 84.2173 31.7182 92.3105 31.9387 92.4376Z"
       fill="#FFB132"
       id="path961" />
    <path
       d="M99.5394 24.9139C99.6667 25.1341 95.4245 32.0329 95.2973 32.2531C95.17 32.4733 91.3097 39.5923 91.0551 39.5923C90.8006 39.5923 86.9403 32.4733 86.813 32.2531C86.6857 32.0329 82.4436 25.1341 82.5709 24.9139C82.6981 24.6937 90.8006 24.9139 91.0551 24.9139C91.3097 24.9139 99.4121 24.6937 99.5394 24.9139ZM13.825 74.3447C13.9523 74.5649 22.0547 74.3447 22.3093 74.3447C22.5638 74.3447 30.6663 74.5649 30.7935 74.3447C30.9208 74.1245 26.6787 67.2257 26.5514 67.0055C26.4241 66.7853 22.5638 59.6663 22.3093 59.6663C22.0547 59.6663 18.1944 66.7853 18.0671 67.0055C17.9399 67.2257 13.6977 74.1245 13.825 74.3447Z"
       fill="#FFB132"
       id="path963" />
    <path
       d="M90.8307 41.5673C96.2286 41.5673 101.405 43.7247 105.222 47.565C109.039 51.4052 111.184 56.6138 111.184 62.0449C111.179 62.295 111.168 62.5449 111.154 62.7946C113.682 61.5455 116.512 60.8459 119.499 60.8459C130.234 60.8459 138.937 69.8771 138.937 81.0189C138.937 88.2367 134.649 97.2182 127.953 99.229C124.043 100.404 120.645 100.041 116.85 100.074C116.621 100.076 116.395 100.074 116.171 100.069L48.0452 100.023C47.957 100.024 47.8688 100.025 47.7806 100.025C44.4801 100.025 40.2302 100.302 37.7635 98.9545C33.301 96.5162 30.1572 91.0727 30.1572 83.3784C30.1572 71.9402 38.3312 62.6677 48.4142 62.6677C49.9931 62.6677 51.5244 62.8944 52.9856 63.3218C54.5018 60.3329 56.8268 57.8202 59.7012 56.0643C62.5755 54.3084 65.886 53.3783 69.263 53.378C70.2714 53.381 71.2777 53.4669 72.2717 53.6348C73.8814 50.0388 76.4889 46.9871 79.7809 44.8462C83.0728 42.7052 86.911 41.5674 90.8307 41.5673Z"
       fill="#C8CFD0"
       id="path965" />
    <path
       d="M48.0436 56.5103C42.6458 56.5102 37.4689 58.6677 33.652 62.5079C29.835 66.3482 27.6905 71.5567 27.6902 76.9878C27.6957 77.2379 27.7058 77.4879 27.7204 77.7376C25.1919 76.4884 22.3624 75.7888 19.3756 75.7888C8.63998 75.7888 -0.0630493 84.8201 -0.0630493 95.9618C-0.0630493 103.18 4.22566 112.161 10.9212 114.172C14.8308 115.346 18.2292 114.984 22.0246 115.017C22.2529 115.019 22.4789 115.017 22.7035 115.011L90.8291 114.973C90.9173 114.974 91.0055 114.975 91.0937 114.975C94.3942 114.975 98.6441 115.252 101.111 113.905C105.573 111.466 108.717 106.023 108.717 98.3287C108.717 86.8904 100.543 77.6179 90.46 77.6179C88.8811 77.6179 87.3498 77.8446 85.8886 78.272C84.3724 75.2831 82.0474 72.7705 79.173 71.0146C76.2987 69.2588 72.9882 68.3287 69.6112 68.3284C68.6029 68.3314 67.5965 68.4173 66.6025 68.5852C64.9928 64.9893 62.3853 61.9375 59.0934 59.7966C55.8014 57.6557 51.9634 56.5104 48.0436 56.5103Z"
       fill="#B3BDBE"
       id="path967" />
  </g>
  <defs
     id="defs974">
    <clipPath
       id="clip0_126_211">
      <rect
         width="139"
         height="115"
         rx="5"
         fill="white"
         id="rect971" />
    </clipPath>
  </defs>
</svg>
